<svg width="981" height="981" xmlns="http://www.w3.org/2000/svg" xmlns:xlink="http://www.w3.org/1999/xlink" xml:space="preserve" overflow="hidden"><defs><clipPath id="clip0"><rect x="1806" y="1332" width="981" height="981"/></clipPath></defs><g clip-path="url(#clip0)" transform="translate(-1806 -1332)"><path d="M2784.17 2136.9C2346.94 2067.41 2007.89 1743.83 1944.87 1335.9" stroke="#4472C4" stroke-width="4.58333" stroke-miterlimit="8" stroke-dasharray="36.6667 13.75" fill="none" fill-rule="evenodd"/><path d="M2426.96 2012.88C2266.18 1922.51 2135.34 1792.7 2048.81 1637.73" stroke="#70AD47" stroke-width="13.75" stroke-miterlimit="8" fill="none" fill-rule="evenodd"/><rect x="1808.5" y="1334.5" width="976" height="976" stroke="#000000" stroke-width="4.58333" stroke-miterlimit="8" fill="none"/><path d="M2250.5 1787.52 2235.05 1828.05 2263.26 1828.05ZM2249.08 1778.57 2255.08 1778.57 2272.18 1831.94 2272.18 1834.53 2227.88 1834.53 2227.88 1831.94Z" fill-rule="evenodd"/><text fill="#000000" fill-opacity="0" font-family="Arial,Arial_MSFontService,sans-serif" font-size="55.9683" x="2227.88" y="1827.54">Î”</text><path d="M2292.75 1815.69C2291.36 1815.69 2290.2 1816.06 2289.26 1816.78 2288.33 1817.51 2287.59 1818.57 2287.04 1819.97 2286.5 1821.37 2286.11 1823.08 2285.88 1825.09 2285.65 1827.11 2285.54 1829.4 2285.54 1831.96 2285.54 1834.92 2285.68 1837.47 2285.97 1839.63 2286.26 1841.78 2286.71 1843.55 2287.31 1844.94 2287.92 1846.33 2288.68 1847.36 2289.59 1848.01 2290.5 1848.67 2291.6 1848.99 2292.87 1848.99 2294.06 1848.99 2295.1 1848.69 2295.99 1848.07 2296.89 1847.46 2297.63 1846.5 2298.21 1845.2 2298.8 1843.9 2299.24 1842.25 2299.54 1840.25 2299.84 1838.26 2299.99 1835.9 2299.99 1833.18 2299.99 1830.12 2299.82 1827.49 2299.49 1825.29 2299.17 1823.08 2298.71 1821.27 2298.11 1819.85 2297.51 1818.43 2296.76 1817.38 2295.86 1816.71 2294.96 1816.03 2293.92 1815.69 2292.75 1815.69ZM2292.87 1812.81C2295.23 1812.81 2297.25 1813.25 2298.93 1814.13 2300.61 1815.01 2301.98 1816.28 2303.04 1817.91 2304.1 1819.55 2304.88 1821.55 2305.38 1823.92 2305.87 1826.28 2306.12 1828.95 2306.12 1831.93 2306.12 1838.54 2304.95 1843.54 2302.61 1846.92 2300.26 1850.31 2296.87 1852 2292.42 1852 2288.01 1852 2284.74 1850.4 2282.59 1847.21 2280.45 1844.01 2279.37 1839.17 2279.37 1832.67 2279.37 1829.28 2279.71 1826.34 2280.37 1823.86 2281.04 1821.37 2281.97 1819.31 2283.17 1817.68 2284.37 1816.04 2285.8 1814.82 2287.45 1814.01 2289.09 1813.21 2290.9 1812.81 2292.87 1812.81Z" fill-rule="evenodd"/><text fill="#000000" fill-opacity="0" font-family="Arial,Arial_MSFontService,sans-serif" font-size="39.1973" x="2279.37" y="1847.1">0</text><path d="M2397.99 1772.42C2405.88 1774.5 2411.93 1778.99 2416.16 1785.89 2420.39 1792.8 2422.51 1801.13 2422.51 1810.88 2422.51 1820.66 2420.4 1828.99 2416.18 1835.86 2411.97 1842.74 2405.9 1847.22 2397.99 1849.3L2397.01 1846.18C2403.25 1844.1 2407.9 1839.99 2410.93 1833.86 2413.97 1827.73 2415.49 1819.93 2415.49 1810.47 2415.49 1801.34 2413.98 1793.76 2410.96 1787.72 2407.93 1781.68 2403.24 1777.62 2396.89 1775.54ZM2345.26 1772.42 2346.36 1775.54C2340.03 1777.62 2335.35 1781.68 2332.31 1787.72 2329.27 1793.76 2327.75 1801.34 2327.75 1810.47 2327.75 1819.93 2329.27 1827.73 2332.31 1833.86 2335.35 1839.99 2339.99 1844.1 2346.23 1846.18L2345.26 1849.3C2337.35 1847.22 2331.28 1842.74 2327.06 1835.86 2322.85 1828.99 2320.74 1820.66 2320.74 1810.88 2320.74 1801.13 2322.86 1792.8 2327.09 1785.89 2331.31 1778.99 2337.37 1774.5 2345.26 1772.42Z" fill-rule="evenodd"/><path d="M2368.8 1776.58 2371.15 1776.58 2363.21 1811.96 2364.5 1811.96C2366.53 1811.96 2368.81 1811.07 2371.33 1809.31 2373.86 1807.54 2375.88 1805.89 2377.39 1804.38 2378.9 1802.87 2379.66 1801.41 2379.66 1800 2379.66 1798.68 2378.74 1797.94 2376.91 1797.78L2377.35 1795.79 2390.48 1795.79 2391.25 1797.78C2389.01 1799.8 2386.63 1801.79 2384.12 1803.73L2374.07 1811.51 2378.04 1826.14C2378.36 1827.39 2378.66 1828.29 2378.91 1828.84 2379.17 1829.39 2379.47 1829.81 2379.8 1830.08 2380.14 1830.35 2380.59 1830.48 2381.16 1830.48 2381.86 1830.48 2382.7 1830.1 2383.67 1829.35 2384.65 1828.59 2385.75 1827.5 2387 1826.06L2389.31 1828.33C2386.88 1830.9 2384.86 1832.68 2383.27 1833.68 2381.67 1834.68 2380.13 1835.18 2378.65 1835.18 2376.81 1835.18 2375.35 1834.66 2374.27 1833.62 2373.19 1832.58 2372.34 1830.85 2371.72 1828.41L2369.04 1817.88C2368.77 1816.82 2368.5 1816.09 2368.23 1815.69 2367.96 1815.28 2367.65 1815.01 2367.3 1814.88 2366.95 1814.74 2366.33 1814.67 2365.44 1814.67L2362.64 1814.67 2358.43 1834.53 2351.41 1834.53 2361.83 1788.21C2362.18 1786.64 2362.43 1785.42 2362.58 1784.54 2362.73 1783.66 2362.8 1782.89 2362.8 1782.21 2362.8 1781.08 2362.46 1780.28 2361.77 1779.82 2361.08 1779.36 2359.84 1779.11 2358.06 1779.05L2358.55 1776.94Z" fill-rule="evenodd"/><text fill="#000000" fill-opacity="0" font-family="Arial,Arial_MSFontService,sans-serif" font-size="58.6025" x="2351.41" y="1827.86">ğ‘˜</text><path d="M2508.64 1785.66 2508.64 1791.74 2464.62 1810.82 2508.64 1829.91 2508.64 1835.99 2458.54 1813.66 2458.54 1807.99Z" fill-rule="evenodd"/><text fill="#000000" fill-opacity="0" font-family="Arial,Arial_MSFontService,sans-serif" font-size="50.335" x="2458.54" y="1829.7">&lt;</text><path d="M2548.32 1795.14C2550.97 1795.14 2552.9 1796.15 2554.12 1798.18 2555.33 1800.21 2555.94 1803.54 2555.94 1808.19 2555.94 1813.65 2555.68 1819.57 2555.17 1825.94L2555.54 1825.94C2562.1 1814.92 2567.53 1804.87 2571.83 1795.79L2580.3 1795.79 2579.77 1797.73C2577.15 1800.9 2573.31 1806.1 2568.26 1813.34 2563.21 1820.58 2558.49 1827.77 2554.12 1834.9 2553.23 1840.52 2552.09 1845.81 2550.71 1850.78L2544.67 1850.78 2543.5 1848.88C2544.58 1844.64 2546.51 1839.96 2549.29 1834.86 2549.54 1829.75 2549.66 1824.54 2549.66 1819.21 2549.66 1814.7 2549.56 1811.2 2549.38 1808.72 2549.19 1806.23 2548.91 1804.36 2548.54 1803.1 2548.18 1801.85 2547.75 1800.98 2547.25 1800.51 2546.75 1800.04 2546.13 1799.8 2545.4 1799.8 2543.89 1799.8 2542.15 1800.9 2540.18 1803.08L2537.91 1800.81C2539.2 1799.65 2540.21 1798.77 2540.93 1798.18 2541.64 1797.59 2542.38 1797.06 2543.15 1796.6 2543.92 1796.14 2544.72 1795.78 2545.55 1795.53 2546.37 1795.27 2547.29 1795.14 2548.32 1795.14Z" fill-rule="evenodd"/><text fill="#000000" fill-opacity="0" font-family="Arial,Arial_MSFontService,sans-serif" font-size="55.644" x="2537.91" y="1843.83">ğ›¾</text><path d="M2043.11 1442.31 2027.66 1482.84 2055.87 1482.84ZM2041.69 1433.35 2047.69 1433.35 2064.79 1486.73 2064.79 1489.32 2020.49 1489.32 2020.49 1486.73Z" fill-rule="evenodd"/><text fill="#000000" fill-opacity="0" font-family="Arial,Arial_MSFontService,sans-serif" font-size="55.9683" x="2020.49" y="1482.33">Î”</text><path d="M2085.36 1470.48C2083.97 1470.48 2082.81 1470.85 2081.87 1471.57 2080.94 1472.29 2080.2 1473.36 2079.65 1474.76 2079.11 1476.16 2078.72 1477.86 2078.49 1479.88 2078.26 1481.9 2078.15 1484.18 2078.15 1486.75 2078.15 1489.7 2078.29 1492.26 2078.58 1494.42 2078.87 1496.57 2079.32 1498.34 2079.92 1499.73 2080.53 1501.12 2081.29 1502.14 2082.2 1502.8 2083.11 1503.46 2084.21 1503.78 2085.48 1503.78 2086.67 1503.78 2087.71 1503.47 2088.6 1502.86 2089.5 1502.24 2090.24 1501.29 2090.82 1499.99 2091.41 1498.68 2091.85 1497.04 2092.15 1495.04 2092.45 1493.05 2092.6 1490.69 2092.6 1487.97 2092.6 1484.91 2092.43 1482.28 2092.1 1480.07 2091.78 1477.87 2091.31 1476.06 2090.72 1474.64 2090.12 1473.22 2089.37 1472.17 2088.47 1471.5 2087.57 1470.82 2086.53 1470.48 2085.36 1470.48ZM2085.48 1467.59C2087.84 1467.59 2089.86 1468.04 2091.54 1468.92 2093.22 1469.8 2094.59 1471.06 2095.65 1472.7 2096.71 1474.34 2097.49 1476.34 2097.99 1478.7 2098.48 1481.07 2098.73 1483.74 2098.73 1486.72 2098.73 1493.33 2097.56 1498.33 2095.22 1501.71 2092.87 1505.1 2089.48 1506.79 2085.03 1506.79 2080.62 1506.79 2077.35 1505.19 2075.2 1502 2073.06 1498.8 2071.98 1493.95 2071.98 1487.46 2071.98 1484.06 2072.32 1481.13 2072.98 1478.64 2073.65 1476.16 2074.58 1474.1 2075.78 1472.46 2076.98 1470.83 2078.41 1469.6 2080.06 1468.8 2081.7 1468 2083.51 1467.59 2085.48 1467.59Z" fill-rule="evenodd"/><text fill="#000000" fill-opacity="0" font-family="Arial,Arial_MSFontService,sans-serif" font-size="39.1973" x="2071.98" y="1501.89">0</text><path d="M2190.6 1427.21C2198.49 1429.29 2204.54 1433.78 2208.77 1440.68 2213 1447.59 2215.12 1455.91 2215.12 1465.67 2215.12 1475.45 2213.01 1483.78 2208.79 1490.65 2204.58 1497.53 2198.51 1502.01 2190.6 1504.09L2189.62 1500.97C2195.86 1498.89 2200.51 1494.78 2203.54 1488.65 2206.58 1482.51 2208.1 1474.72 2208.1 1465.26 2208.1 1456.13 2206.59 1448.55 2203.56 1442.51 2200.54 1436.47 2195.85 1432.41 2189.5 1430.33ZM2137.87 1427.21 2138.97 1430.33C2132.64 1432.41 2127.96 1436.47 2124.92 1442.51 2121.88 1448.55 2120.36 1456.13 2120.36 1465.26 2120.36 1474.72 2121.88 1482.51 2124.92 1488.65 2127.96 1494.78 2132.6 1498.89 2138.84 1500.97L2137.87 1504.09C2129.96 1502.01 2123.89 1497.53 2119.68 1490.65 2115.46 1483.78 2113.35 1475.45 2113.35 1465.67 2113.35 1455.91 2115.47 1447.59 2119.7 1440.68 2123.92 1433.78 2129.98 1429.29 2137.87 1427.21Z" fill-rule="evenodd"/><path d="M2161.41 1431.37 2163.76 1431.37 2155.82 1466.75 2157.11 1466.75C2159.14 1466.75 2161.42 1465.86 2163.94 1464.09 2166.47 1462.32 2168.49 1460.68 2170 1459.17 2171.51 1457.66 2172.27 1456.2 2172.27 1454.79 2172.27 1453.47 2171.35 1452.73 2169.52 1452.56L2169.96 1450.58 2183.09 1450.58 2183.86 1452.56C2181.62 1454.59 2179.24 1456.58 2176.73 1458.52L2166.68 1466.3 2170.65 1480.93C2170.97 1482.18 2171.27 1483.07 2171.52 1483.63 2171.78 1484.18 2172.08 1484.59 2172.41 1484.86 2172.75 1485.13 2173.2 1485.27 2173.77 1485.27 2174.47 1485.27 2175.31 1484.89 2176.28 1484.13 2177.26 1483.38 2178.36 1482.28 2179.61 1480.85L2181.92 1483.12C2179.49 1485.69 2177.47 1487.47 2175.88 1488.47 2174.28 1489.47 2172.74 1489.97 2171.26 1489.97 2169.42 1489.97 2167.96 1489.45 2166.88 1488.41 2165.8 1487.37 2164.95 1485.63 2164.33 1483.2L2161.65 1472.67C2161.38 1471.61 2161.11 1470.88 2160.84 1470.48 2160.57 1470.07 2160.26 1469.8 2159.91 1469.67 2159.56 1469.53 2158.94 1469.46 2158.05 1469.46L2155.25 1469.46 2151.04 1489.32 2144.02 1489.32 2154.44 1443C2154.79 1441.43 2155.04 1440.21 2155.19 1439.33 2155.34 1438.45 2155.41 1437.68 2155.41 1437 2155.41 1435.87 2155.07 1435.07 2154.38 1434.61 2153.69 1434.15 2152.45 1433.89 2150.67 1433.84L2151.16 1431.73Z" fill-rule="evenodd"/><text fill="#000000" fill-opacity="0" font-family="Arial,Arial_MSFontService,sans-serif" font-size="58.6025" x="2144.02" y="1482.64">ğ‘˜</text><path d="M2251.15 1440.45 2301.25 1462.78 2301.25 1468.45 2251.15 1490.78 2251.15 1484.7 2295.17 1465.61 2251.15 1446.52Z" fill-rule="evenodd"/><text fill="#000000" fill-opacity="0" font-family="Arial,Arial_MSFontService,sans-serif" font-size="50.335" x="2251.15" y="1484.49">&gt;</text><path d="M2340.93 1449.93C2343.58 1449.93 2345.51 1450.94 2346.73 1452.97 2347.94 1455 2348.55 1458.33 2348.55 1462.98 2348.55 1468.44 2348.29 1474.35 2347.78 1480.73L2348.15 1480.73C2354.71 1469.71 2360.14 1459.66 2364.44 1450.58L2372.91 1450.58 2372.38 1452.52C2369.76 1455.68 2365.92 1460.89 2360.87 1468.13 2355.82 1475.37 2351.1 1482.55 2346.73 1489.69 2345.83 1495.31 2344.7 1500.6 2343.32 1505.57L2337.28 1505.57 2336.11 1503.67C2337.19 1499.43 2339.12 1494.75 2341.9 1489.65 2342.15 1484.54 2342.27 1479.33 2342.27 1474 2342.27 1469.49 2342.17 1465.99 2341.98 1463.51 2341.8 1461.02 2341.52 1459.15 2341.15 1457.89 2340.79 1456.64 2340.36 1455.77 2339.86 1455.3 2339.36 1454.83 2338.74 1454.59 2338.01 1454.59 2336.5 1454.59 2334.76 1455.68 2332.79 1457.87L2330.52 1455.6C2331.81 1454.44 2332.82 1453.56 2333.53 1452.97 2334.25 1452.37 2334.99 1451.85 2335.76 1451.39 2336.53 1450.93 2337.33 1450.57 2338.16 1450.31 2338.98 1450.06 2339.9 1449.93 2340.93 1449.93Z" fill-rule="evenodd"/><text fill="#000000" fill-opacity="0" font-family="Arial,Arial_MSFontService,sans-serif" font-size="55.644" x="2330.52" y="1498.62">ğ›¾</text><path d="M2030 1635C2030 1626.16 2037.39 1619 2046.5 1619 2055.61 1619 2063 1626.16 2063 1635 2063 1643.84 2055.61 1651 2046.5 1651 2037.39 1651 2030 1643.84 2030 1635Z" fill="#ED7D31" fill-rule="evenodd"/><path d="M2410 2009C2410 2000.16 2417.39 1993 2426.5 1993 2435.61 1993 2443 2000.16 2443 2009 2443 2017.84 2435.61 2025 2426.5 2025 2417.39 2025 2410 2017.84 2410 2009Z" fill="#ED7D31" fill-rule="evenodd"/></g></svg>