<svg width="1362" height="539" xmlns="http://www.w3.org/2000/svg" xmlns:xlink="http://www.w3.org/1999/xlink" xml:space="preserve" overflow="hidden"><defs><clipPath id="clip0"><rect x="315" y="731" width="1362" height="539"/></clipPath></defs><g clip-path="url(#clip0)" transform="translate(-315 -731)"><path d="M637 812 1649.96 812" stroke="#FF0000" stroke-width="13.75" stroke-miterlimit="8" fill="none" fill-rule="evenodd"/><path d="M542 939 1554.96 939" stroke="#FF0000" stroke-width="13.75" stroke-miterlimit="8" fill="none" fill-rule="evenodd"/><path d="M448 1066 1460.96 1066" stroke="#FF0000" stroke-width="13.75" stroke-miterlimit="8" fill="none" fill-rule="evenodd"/><path d="M353 1191 1365.96 1191" stroke="#FF0000" stroke-width="13.75" stroke-miterlimit="8" fill="none" fill-rule="evenodd"/><path d="M0 0 284.087 380.217" stroke="#FF0000" stroke-width="10.3125" stroke-miterlimit="8" fill="none" fill-rule="evenodd" transform="matrix(-1 0 0 1 637.087 811)"/><path d="M0 0 284.087 380.217" stroke="#FF0000" stroke-width="10.3125" stroke-miterlimit="8" fill="none" fill-rule="evenodd" transform="matrix(-1 0 0 1 888.087 811)"/><path d="M0 0 284.087 380.217" stroke="#FF0000" stroke-width="10.3125" stroke-miterlimit="8" fill="none" fill-rule="evenodd" transform="matrix(-1 0 0 1 1391.09 811)"/><path d="M0 0 284.087 380.217" stroke="#FF0000" stroke-width="10.3125" stroke-miterlimit="8" fill="none" fill-rule="evenodd" transform="matrix(-1 0 0 1 1642.09 811)"/><path d="M0 0 284.087 380.217" stroke="#FF0000" stroke-width="10.3125" stroke-miterlimit="8" fill="none" fill-rule="evenodd" transform="matrix(-1 0 0 1 1139.09 811)"/><path d="M604.5 811C604.5 793.051 619.275 778.5 637.5 778.5 655.726 778.5 670.5 793.051 670.5 811 670.5 828.949 655.726 843.5 637.5 843.5 619.275 843.5 604.5 828.949 604.5 811Z" stroke="#2F528F" stroke-width="4.58333" stroke-miterlimit="8" fill="#4472C4" fill-rule="evenodd"/><path d="M853.5 811C853.5 793.051 868.275 778.5 886.5 778.5 904.725 778.5 919.5 793.051 919.5 811 919.5 828.949 904.725 843.5 886.5 843.5 868.275 843.5 853.5 828.949 853.5 811Z" stroke="#2F528F" stroke-width="4.58333" stroke-miterlimit="8" fill="#4472C4" fill-rule="evenodd"/><path d="M1102.5 811C1102.5 793.051 1117.27 778.5 1135.5 778.5 1153.73 778.5 1168.5 793.051 1168.5 811 1168.5 828.949 1153.73 843.5 1135.5 843.5 1117.27 843.5 1102.5 828.949 1102.5 811Z" stroke="#2F528F" stroke-width="4.58333" stroke-miterlimit="8" fill="#4472C4" fill-rule="evenodd"/><path d="M1352.5 811C1352.5 793.051 1367.05 778.5 1385 778.5 1402.95 778.5 1417.5 793.051 1417.5 811 1417.5 828.949 1402.95 843.5 1385 843.5 1367.05 843.5 1352.5 828.949 1352.5 811Z" stroke="#2F528F" stroke-width="4.58333" stroke-miterlimit="8" fill="#4472C4" fill-rule="evenodd"/><path d="M1601.5 811C1601.5 793.051 1616.05 778.5 1634 778.5 1651.95 778.5 1666.5 793.051 1666.5 811 1666.5 828.949 1651.95 843.5 1634 843.5 1616.05 843.5 1601.5 828.949 1601.5 811Z" stroke="#2F528F" stroke-width="4.58333" stroke-miterlimit="8" fill="#4472C4" fill-rule="evenodd"/><path d="M510.5 939.5C510.5 921.275 525.275 906.5 543.5 906.5 561.725 906.5 576.5 921.275 576.5 939.5 576.5 957.725 561.725 972.5 543.5 972.5 525.275 972.5 510.5 957.725 510.5 939.5Z" stroke="#2F528F" stroke-width="4.58333" stroke-miterlimit="8" fill="#4472C4" fill-rule="evenodd"/><path d="M759.5 939.5C759.5 921.275 774.274 906.5 792.5 906.5 810.725 906.5 825.5 921.275 825.5 939.5 825.5 957.725 810.725 972.5 792.5 972.5 774.274 972.5 759.5 957.725 759.5 939.5Z" stroke="#2F528F" stroke-width="4.58333" stroke-miterlimit="8" fill="#4472C4" fill-rule="evenodd"/><path d="M1008.5 939.5C1008.5 921.275 1023.27 906.5 1041.5 906.5 1059.73 906.5 1074.5 921.275 1074.5 939.5 1074.5 957.725 1059.73 972.5 1041.5 972.5 1023.27 972.5 1008.5 957.725 1008.5 939.5Z" stroke="#2F528F" stroke-width="4.58333" stroke-miterlimit="8" fill="#4472C4" fill-rule="evenodd"/><path d="M1257.5 939.5C1257.5 921.275 1272.27 906.5 1290.5 906.5 1308.73 906.5 1323.5 921.275 1323.5 939.5 1323.5 957.725 1308.73 972.5 1290.5 972.5 1272.27 972.5 1257.5 957.725 1257.5 939.5Z" stroke="#2F528F" stroke-width="4.58333" stroke-miterlimit="8" fill="#4472C4" fill-rule="evenodd"/><path d="M1506.5 939.5C1506.5 921.275 1521.27 906.5 1539.5 906.5 1557.73 906.5 1572.5 921.275 1572.5 939.5 1572.5 957.725 1557.73 972.5 1539.5 972.5 1521.27 972.5 1506.5 957.725 1506.5 939.5Z" stroke="#2F528F" stroke-width="4.58333" stroke-miterlimit="8" fill="#4472C4" fill-rule="evenodd"/><path d="M416.5 1067.5C416.5 1049.27 431.051 1034.5 449 1034.5 466.949 1034.5 481.5 1049.27 481.5 1067.5 481.5 1085.73 466.949 1100.5 449 1100.5 431.051 1100.5 416.5 1085.73 416.5 1067.5Z" stroke="#2F528F" stroke-width="4.58333" stroke-miterlimit="8" fill="#4472C4" fill-rule="evenodd"/><path d="M665.5 1067.5C665.5 1049.27 680.275 1034.5 698.5 1034.5 716.725 1034.5 731.5 1049.27 731.5 1067.5 731.5 1085.73 716.725 1100.5 698.5 1100.5 680.275 1100.5 665.5 1085.73 665.5 1067.5Z" stroke="#2F528F" stroke-width="4.58333" stroke-miterlimit="8" fill="#4472C4" fill-rule="evenodd"/><path d="M914.5 1067.5C914.5 1049.27 929.274 1034.5 947.5 1034.5 965.725 1034.5 980.5 1049.27 980.5 1067.5 980.5 1085.73 965.725 1100.5 947.5 1100.5 929.274 1100.5 914.5 1085.73 914.5 1067.5Z" stroke="#2F528F" stroke-width="4.58333" stroke-miterlimit="8" fill="#4472C4" fill-rule="evenodd"/><path d="M1163.5 1067.5C1163.5 1049.27 1178.27 1034.5 1196.5 1034.5 1214.73 1034.5 1229.5 1049.27 1229.5 1067.5 1229.5 1085.73 1214.73 1100.5 1196.5 1100.5 1178.27 1100.5 1163.5 1085.73 1163.5 1067.5Z" stroke="#2F528F" stroke-width="4.58333" stroke-miterlimit="8" fill="#4472C4" fill-rule="evenodd"/><path d="M1412.5 1067.5C1412.5 1049.27 1427.27 1034.5 1445.5 1034.5 1463.73 1034.5 1478.5 1049.27 1478.5 1067.5 1478.5 1085.73 1463.73 1100.5 1445.5 1100.5 1427.27 1100.5 1412.5 1085.73 1412.5 1067.5Z" stroke="#2F528F" stroke-width="4.58333" stroke-miterlimit="8" fill="#4472C4" fill-rule="evenodd"/><path d="M322.5 1195.5C322.5 1177.27 337.051 1162.5 355 1162.5 372.949 1162.5 387.5 1177.27 387.5 1195.5 387.5 1213.73 372.949 1228.5 355 1228.5 337.051 1228.5 322.5 1213.73 322.5 1195.5Z" stroke="#2F528F" stroke-width="4.58333" stroke-miterlimit="8" fill="#4472C4" fill-rule="evenodd"/><path d="M571.5 1195.5C571.5 1177.27 586.051 1162.5 604 1162.5 621.949 1162.5 636.5 1177.27 636.5 1195.5 636.5 1213.73 621.949 1228.5 604 1228.5 586.051 1228.5 571.5 1213.73 571.5 1195.5Z" stroke="#2F528F" stroke-width="4.58333" stroke-miterlimit="8" fill="#4472C4" fill-rule="evenodd"/><path d="M820.5 1195.5C820.5 1177.27 835.051 1162.5 853 1162.5 870.949 1162.5 885.5 1177.27 885.5 1195.5 885.5 1213.73 870.949 1228.5 853 1228.5 835.051 1228.5 820.5 1213.73 820.5 1195.5Z" stroke="#2F528F" stroke-width="4.58333" stroke-miterlimit="8" fill="#4472C4" fill-rule="evenodd"/><path d="M1069.5 1195.5C1069.5 1177.27 1084.27 1162.5 1102.5 1162.5 1120.73 1162.5 1135.5 1177.27 1135.5 1195.5 1135.5 1213.73 1120.73 1228.5 1102.5 1228.5 1084.27 1228.5 1069.5 1213.73 1069.5 1195.5Z" stroke="#2F528F" stroke-width="4.58333" stroke-miterlimit="8" fill="#4472C4" fill-rule="evenodd"/><path d="M1318.5 1195.5C1318.5 1177.27 1333.27 1162.5 1351.5 1162.5 1369.73 1162.5 1384.5 1177.27 1384.5 1195.5 1384.5 1213.73 1369.73 1228.5 1351.5 1228.5 1333.27 1228.5 1318.5 1213.73 1318.5 1195.5Z" stroke="#2F528F" stroke-width="4.58333" stroke-miterlimit="8" fill="#4472C4" fill-rule="evenodd"/><path d="M6.875-3.77959e-05 6.87517 31.2706-6.87483 31.2706-6.875 3.77959e-05ZM20.6251 24.3955 0.000360892 65.6456-20.6249 24.3957Z" fill="#C5E0B4" transform="matrix(1 0 0 -1 543 971.646)"/><path d="M602.91 901.103 607.185 898.939 619.563 893.158 631.906 887.869 644.22 883.385 656.452 879.773 668.645 877.359 674.733 876.654 680.837 876.269 687.286 876.462 694.219 877.233 701.486 878.635 709.103 880.476 724.417 885.139 739.317 890.609 746.323 893.386 752.544 896.136 750.69 900.328 744.511 897.596 744.593 897.63 737.655 894.88 737.71 894.901 722.898 889.464 723.02 889.505 707.832 884.88 707.961 884.915 700.461 883.103 700.566 883.125 693.441 881.75 693.622 881.778 686.872 881.028 687.056 881.041 680.806 880.853 681.019 880.85 675.082 881.225 675.201 881.214 669.263 881.902 669.445 881.873 657.445 884.248 657.649 884.198 645.586 887.76 645.721 887.716 633.534 892.154 633.653 892.107 621.403 897.357 621.469 897.327 609.157 903.077 609.222 903.045 604.98 905.192ZM614.245 913.344 583.5 913.5 601.823 888.81ZM753.103 883.815 772.5 907.67 741.778 908.874Z"/><path d="M663.681 851.255 713.611 851.255 713.611 856.646 663.681 856.646Z" fill-rule="evenodd"/><text fill="#000000" fill-opacity="0" font-family="Arial,Arial_MSFontService,sans-serif" font-size="5.39014" x="663.681" y="855.972">−</text><path d="M735.364 828.925 740.956 828.925 738.727 838.935 751.048 838.935 750.156 843.028 737.836 843.028 734.229 858.753C733.526 861.806 733.081 864.001 732.891 865.339 732.702 866.676 732.608 867.75 732.608 868.561 732.608 871.911 733.999 873.586 736.782 873.586 737.971 873.586 739.234 873.133 740.571 872.228 741.909 871.323 743.496 869.776 745.333 867.588L747.684 870.02C745.333 872.857 743.071 874.95 740.896 876.301 738.721 877.652 736.444 878.328 734.067 878.328 728.42 878.328 725.597 875.477 725.597 869.776 725.597 867.966 725.826 866.061 726.286 864.062L731.068 843.028 724.259 843.028 724.867 840.232C726.461 840.205 727.67 840.083 728.494 839.867 729.318 839.651 730.007 839.354 730.561 838.976 731.115 838.597 731.622 838.057 732.081 837.355 732.54 836.652 732.986 835.754 733.418 834.659 733.851 833.565 734.499 831.654 735.364 828.925Z" fill-rule="evenodd"/><text fill="#000000" fill-opacity="0" font-family="Arial,Arial_MSFontService,sans-serif" font-size="49.4028" x="724.259" y="872.152">𝑡</text><path d="M6.875-3.77959e-05 6.87517 31.2706-6.87483 31.2706-6.875 3.77959e-05ZM20.6251 24.3955 0.000360892 65.6456-20.6249 24.3957Z" fill="#C5E0B4" transform="matrix(1 0 0 -1 1056 968.646)"/><path d="M1033.88 906 1033.88 937.271 1020.13 937.271 1020.13 906ZM1047.63 930.396 1027 971.646 1006.38 930.396Z" fill="#C5E0B4"/><path d="M1016.42 835.334 1032.71 835.334 1032.27 837.32C1031.24 837.536 1030.51 837.779 1030.06 838.05 1029.61 838.32 1029.21 838.725 1028.84 839.265 1028.48 839.806 1028.11 840.65 1027.75 841.798 1027.39 842.947 1026.92 844.818 1026.35 847.411L1021.29 870.107C1020.93 871.647 1020.66 873.112 1020.46 874.504 1020.25 875.895 1020.15 877.334 1020.15 878.82 1020.15 881.765 1020.87 883.994 1022.32 885.507 1023.76 887.02 1025.95 887.777 1028.86 887.777 1031.62 887.777 1033.92 887.209 1035.75 886.074 1037.59 884.94 1039.06 883.305 1040.17 881.171 1041.28 879.036 1042.21 876.267 1042.97 872.863L1048.6 847.371C1049.2 844.669 1049.49 842.494 1049.49 840.846 1049.49 839.576 1049.18 838.691 1048.54 838.191 1047.91 837.692 1046.9 837.401 1045.52 837.32L1045.97 835.334 1061.37 835.334 1060.92 837.32C1059.92 837.536 1059.19 837.786 1058.71 838.07 1058.24 838.354 1057.82 838.766 1057.46 839.306 1057.09 839.846 1056.73 840.697 1056.38 841.859 1056.03 843.021 1055.57 844.872 1055 847.411L1049.74 871.687C1048.68 876.523 1047.2 880.374 1045.28 883.238 1043.36 886.102 1040.96 888.168 1038.08 889.438 1035.21 890.708 1031.69 891.343 1027.53 891.343 1022.85 891.343 1019.27 890.215 1016.79 887.959 1014.3 885.703 1013.06 882.414 1013.06 878.091 1013.06 876.578 1013.21 874.842 1013.52 872.883 1013.84 870.924 1014.27 868.715 1014.84 866.257L1019.06 847.371C1019.68 844.588 1019.99 842.413 1019.99 840.846 1019.99 839.63 1019.68 838.759 1019.06 838.232 1018.44 837.705 1017.41 837.401 1015.98 837.32Z" fill-rule="evenodd"/><text fill="#000000" fill-opacity="0" font-family="Arial,Arial_MSFontService,sans-serif" font-size="56.0088" x="1013.06" y="884.342">𝑈</text><path d="M6.875-3.77959e-05 6.87517 31.2706-6.87483 31.2706-6.875 3.77959e-05ZM20.6251 24.3955 0.000360892 65.6456-20.6249 24.3957Z" fill="#C5E0B4" transform="matrix(1 0 0 -1 448 1098.65)"/><path d="M704.875 1033 704.875 1064.27 691.125 1064.27 691.125 1033ZM718.625 1057.4 698.001 1098.65 677.375 1057.4Z" fill="#C5E0B4"/><path d="M953.875 1034 953.875 1065.27 940.125 1065.27 940.125 1034ZM967.625 1058.4 947 1099.65 926.375 1058.4Z" fill="#C5E0B4"/><path d="M6.875-3.77959e-05 6.87517 31.2706-6.87483 31.2706-6.875 3.77959e-05ZM20.6251 24.3955 0.000360892 65.6456-20.6249 24.3957Z" fill="#C5E0B4" transform="matrix(1 0 0 -1 1196 1099.65)"/><path d="M1451.88 1034 1451.88 1065.27 1438.13 1065.27 1438.13 1034ZM1465.63 1058.4 1445 1099.65 1424.38 1058.4Z" fill="#C5E0B4"/><path d="M1296.88 906 1296.88 937.271 1283.13 937.271 1283.13 906ZM1310.63 930.396 1290 971.646 1269.38 930.396Z" fill="#C5E0B4"/><path d="M1545.88 903 1545.88 934.271 1532.13 934.271 1532.12 903ZM1559.63 927.396 1539 968.646 1518.38 927.396Z" fill="#C5E0B4"/><path d="M1640.87 778 1640.88 809.27 1627.12 809.271 1627.12 778ZM1654.62 802.395 1634 843.646 1613.38 802.396Z" fill="#C5E0B4"/><path d="M6.875-3.77959e-05 6.87517 31.2706-6.87483 31.2706-6.875 3.77959e-05ZM20.6251 24.3955 0.000360892 65.6456-20.6249 24.3957Z" fill="#C5E0B4" transform="matrix(1 0 0 -1 1384 839.646)"/><path d="M1141.88 777 1141.88 808.27 1128.13 808.271 1128.13 777ZM1155.63 801.395 1135 842.646 1114.38 801.396Z" fill="#C5E0B4"/><path d="M6.875-3.77959e-05 6.87517 31.2706-6.87483 31.2706-6.875 3.77959e-05ZM20.6251 24.3955 0.000360892 65.6456-20.6249 24.3957Z" fill="#C5E0B4" transform="matrix(1 0 0 -1 885 839.646)"/><path d="M641.875 778 641.875 809.27 628.125 809.271 628.125 778ZM655.625 802.395 635 843.646 614.375 802.396Z" fill="#C5E0B4"/><path d="M364.875 1158 364.875 1189.27 351.125 1189.27 351.125 1158ZM378.625 1182.4 358 1223.65 337.375 1182.4Z" fill="#C5E0B4"/><path d="M6.875-3.77959e-05 6.87517 31.2706-6.87483 31.2706-6.875 3.77959e-05ZM20.6251 24.3955 0.000360892 65.6456-20.6249 24.3957Z" fill="#C5E0B4" transform="matrix(1 0 0 -1 602 1227.65)"/><path d="M857.875 1162 857.875 1193.27 844.125 1193.27 844.125 1162ZM871.625 1186.4 851 1227.65 830.375 1186.4Z" fill="#C5E0B4"/><path d="M6.875-3.77959e-05 6.87517 31.2706-6.87483 31.2706-6.875 3.77959e-05ZM20.6251 24.3955 0.000360892 65.6456-20.6249 24.3957Z" fill="#C5E0B4" transform="matrix(1 0 0 -1 1102 1227.65)"/><path d="M1357.87 1162 1357.88 1193.27 1344.12 1193.27 1344.12 1162ZM1371.62 1186.4 1351 1227.65 1330.38 1186.4Z" fill="#C5E0B4"/></g></svg>