<svg width="555" height="570" xmlns="http://www.w3.org/2000/svg" xmlns:xlink="http://www.w3.org/1999/xlink" xml:space="preserve" overflow="hidden"><defs><clipPath id="clip0"><rect x="2312" y="1053" width="555" height="570"/></clipPath></defs><g clip-path="url(#clip0)" transform="translate(-2312 -1053)"><path d="M2490.36 1093.71C2493.06 1093.71 2495.26 1094.33 2496.96 1095.57 2498.67 1096.81 2499.84 1098.72 2500.49 1101.29 2502.52 1099.23 2504.16 1097.72 2505.41 1096.75 2506.67 1095.77 2507.95 1095.03 2509.26 1094.5 2510.58 1093.97 2511.99 1093.71 2513.5 1093.71 2515.31 1093.71 2516.87 1093.97 2518.18 1094.5 2519.49 1095.03 2520.6 1095.84 2521.5 1096.93 2522.41 1098.02 2523.07 1099.4 2523.49 1101.04 2523.91 1102.69 2524.12 1104.91 2524.12 1107.69L2524.12 1122.97C2524.12 1125.02 2524.19 1126.44 2524.32 1127.22 2524.46 1128.01 2524.65 1128.62 2524.91 1129.05 2525.17 1129.48 2525.55 1129.85 2526.06 1130.16 2526.58 1130.47 2527.44 1130.79 2528.66 1131.11L2528.66 1133.1 2512.73 1133.1 2512.73 1131.11C2513.78 1130.79 2514.54 1130.51 2515 1130.26 2515.46 1130.02 2515.84 1129.68 2516.15 1129.25 2516.47 1128.82 2516.71 1128.15 2516.88 1127.24 2517.06 1126.34 2517.15 1124.97 2517.15 1123.13L2517.15 1112.51C2517.15 1110.22 2517.09 1108.32 2516.97 1106.82 2516.84 1105.32 2516.65 1104.12 2516.4 1103.23 2516.14 1102.34 2515.83 1101.64 2515.47 1101.12 2515.1 1100.61 2514.69 1100.17 2514.23 1099.79 2513.77 1099.41 2513.23 1099.11 2512.61 1098.9 2511.99 1098.68 2511.16 1098.57 2510.14 1098.57 2509.06 1098.57 2508.05 1098.79 2507.12 1099.22 2506.18 1099.65 2505.17 1100.38 2504.08 1101.41 2502.98 1102.43 2502.19 1103.47 2501.71 1104.51 2501.22 1105.55 2500.98 1106.77 2500.98 1108.18L2500.98 1122.97C2500.98 1125.02 2501.04 1126.44 2501.18 1127.22 2501.31 1128.01 2501.51 1128.62 2501.77 1129.05 2502.02 1129.48 2502.41 1129.85 2502.92 1130.16 2503.44 1130.47 2504.3 1130.79 2505.52 1131.11L2505.52 1133.1 2489.59 1133.1 2489.59 1131.11C2490.64 1130.79 2491.4 1130.51 2491.86 1130.26 2492.32 1130.02 2492.7 1129.68 2493.01 1129.25 2493.32 1128.82 2493.57 1128.15 2493.74 1127.24 2493.92 1126.34 2494.01 1124.97 2494.01 1123.13L2494.01 1112.51C2494.01 1110.11 2493.94 1108.15 2493.8 1106.64 2493.67 1105.12 2493.46 1103.91 2493.18 1102.99 2492.89 1102.07 2492.53 1101.33 2492.08 1100.76 2491.64 1100.19 2491.18 1099.76 2490.72 1099.46 2490.26 1099.17 2489.72 1098.94 2489.1 1098.79 2488.48 1098.65 2487.78 1098.57 2487 1098.57 2485.89 1098.57 2484.85 1098.82 2483.87 1099.32 2482.9 1099.82 2481.91 1100.54 2480.9 1101.49 2479.88 1102.43 2479.12 1103.42 2478.61 1104.45 2478.09 1105.47 2477.84 1106.58 2477.84 1107.77L2477.84 1122.97C2477.84 1124.51 2477.88 1125.68 2477.96 1126.49 2478.04 1127.31 2478.17 1127.94 2478.34 1128.4 2478.52 1128.86 2478.74 1129.23 2479.01 1129.51 2479.28 1129.8 2479.67 1130.07 2480.17 1130.32 2480.67 1130.58 2481.42 1130.84 2482.42 1131.11L2482.42 1133.1 2466.53 1133.1 2466.53 1131.11C2467.56 1130.79 2468.29 1130.51 2468.74 1130.26 2469.18 1130.02 2469.57 1129.68 2469.89 1129.25 2470.22 1128.82 2470.46 1128.16 2470.62 1127.26 2470.78 1126.37 2470.87 1124.98 2470.87 1123.09L2470.87 1105.42C2470.87 1103.69 2470.84 1102.3 2470.78 1101.25 2470.73 1100.19 2470.54 1099.35 2470.22 1098.71 2469.89 1098.08 2469.4 1097.61 2468.74 1097.29 2468.08 1096.98 2467.14 1096.72 2465.92 1096.5L2465.92 1094.36 2475.4 1093.99 2477.88 1093.99 2477.43 1100.6 2478 1100.76C2479.62 1099.14 2480.95 1097.92 2481.99 1097.09 2483.03 1096.27 2484.04 1095.61 2485.01 1095.11 2485.98 1094.61 2486.89 1094.25 2487.74 1094.03 2488.6 1093.82 2489.47 1093.71 2490.36 1093.71ZM2440.46 1077.78 2457.56 1077.78 2457.56 1079.77C2456.37 1080.06 2455.52 1080.36 2454.99 1080.66 2454.46 1080.96 2454.04 1081.33 2453.73 1081.77 2453.42 1082.22 2453.19 1082.89 2453.04 1083.78 2452.9 1084.67 2452.82 1086.05 2452.82 1087.91L2452.82 1122.97C2452.82 1124.78 2452.88 1126.1 2453 1126.94 2453.13 1127.78 2453.33 1128.44 2453.61 1128.93 2453.9 1129.41 2454.31 1129.82 2454.87 1130.14 2455.42 1130.47 2456.32 1130.79 2457.56 1131.11L2457.56 1133.1 2440.46 1133.1 2440.46 1131.11C2442.14 1130.68 2443.26 1130.2 2443.82 1129.68 2444.39 1129.15 2444.76 1128.4 2444.94 1127.43 2445.11 1126.45 2445.2 1124.97 2445.2 1122.97L2445.2 1087.91C2445.2 1086.05 2445.14 1084.69 2445 1083.84 2444.86 1082.99 2444.64 1082.33 2444.33 1081.85 2444.02 1081.38 2443.61 1081 2443.1 1080.72 2442.58 1080.44 2441.7 1080.12 2440.46 1079.77Z" fill-rule="evenodd"/><text fill="#000000" fill-opacity="0" font-family="Arial,Arial_MSFontService,sans-serif" font-size="55.3198" x="2440.46" y="1126.19">Im</text><path d="M2552.65 1077.78 2590.09 1077.78 2590.09 1091.92 2586.29 1091.92C2585.18 1087.57 2584.04 1084.75 2582.86 1083.45 2581.69 1082.16 2579.99 1081.51 2577.77 1081.51L2562.41 1081.51 2576.32 1102.5 2576.32 1104.89 2560.71 1126.41 2579.07 1126.41C2581.42 1126.41 2583.12 1125.89 2584.18 1124.83 2585.23 1123.78 2586.1 1121.39 2586.77 1117.66L2590.82 1117.66 2589.93 1133.1 2551.51 1133.1 2551.51 1131.11 2569.67 1106.15 2552.65 1079.77Z" fill-rule="evenodd"/><text fill="#000000" fill-opacity="0" font-family="Arial,Arial_MSFontService,sans-serif" font-size="55.3198" x="2551.51" y="1126.19">Σ</text><path d="M2626.64 1074.54 2627.74 1077.66C2621.41 1079.74 2616.73 1083.8 2613.69 1089.84 2610.65 1095.88 2609.13 1103.46 2609.13 1112.59 2609.13 1122.05 2610.65 1129.84 2613.69 1135.98 2616.73 1142.11 2621.37 1146.22 2627.61 1148.3L2626.64 1151.42C2618.73 1149.34 2612.66 1144.86 2608.45 1137.98 2604.23 1131.11 2602.12 1122.78 2602.12 1113 2602.12 1103.25 2604.24 1094.92 2608.47 1088.01 2612.69 1081.11 2618.75 1076.62 2626.64 1074.54Z" fill-rule="evenodd"/><text fill="#000000" fill-opacity="0" font-family="Arial,Arial_MSFontService,sans-serif" font-size="76.8804" x="2602.12" y="1141.81">(</text><path d="M2651.13 1093.67 2653.2 1096.42C2649.09 1099.77 2645.87 1103.56 2643.55 1107.79 2641.23 1112.02 2640.06 1116.39 2640.06 1120.9 2640.06 1124.01 2640.65 1126.39 2641.83 1128.05 2643 1129.72 2644.66 1130.55 2646.79 1130.55 2648.79 1130.55 2650.49 1129.74 2651.9 1128.12 2653.3 1126.49 2654.34 1124.12 2655.02 1120.98L2658.34 1105.7 2665.15 1105.7 2662.07 1119.65C2661.72 1121.24 2661.54 1122.73 2661.54 1124.1 2661.54 1126.26 2662.01 1127.88 2662.94 1128.95 2663.87 1130.01 2665.19 1130.55 2666.89 1130.55 2669.14 1130.55 2671.12 1129.73 2672.85 1128.1 2674.58 1126.46 2675.92 1124.08 2676.88 1120.94 2677.84 1117.81 2678.32 1114.16 2678.32 1110 2678.32 1107.54 2677.98 1105.02 2677.31 1102.44 2676.63 1099.86 2675.69 1097.72 2674.47 1096.02L2677.23 1093.67C2679.93 1096.23 2681.96 1099.06 2683.33 1102.14 2684.69 1105.22 2685.37 1108.53 2685.37 1112.07 2685.37 1116.04 2684.59 1119.7 2683.02 1123.05 2681.46 1126.4 2679.23 1129.02 2676.36 1130.91 2673.48 1132.8 2670.19 1133.75 2666.49 1133.75 2662 1133.75 2658.94 1131.53 2657.29 1127.1L2657.13 1127.1C2656.18 1128.59 2655.19 1129.78 2654.15 1130.69 2653.11 1131.59 2651.8 1132.33 2650.24 1132.9 2648.67 1133.47 2646.81 1133.75 2644.64 1133.75 2642.56 1133.75 2640.65 1133.28 2638.91 1132.35 2637.17 1131.42 2635.75 1129.96 2634.67 1127.97 2633.59 1125.99 2633.05 1123.55 2633.05 1120.66 2633.05 1115.74 2634.63 1110.92 2637.79 1106.19 2640.96 1101.46 2645.4 1097.29 2651.13 1093.67Z" fill-rule="evenodd"/><text fill="#000000" fill-opacity="0" font-family="Arial,Arial_MSFontService,sans-serif" font-size="40.0815" x="2633.05" y="1128.74">𝜔</text><path d="M2693.23 1074.54C2701.12 1076.62 2707.18 1081.11 2711.41 1088.01 2715.64 1094.92 2717.75 1103.25 2717.75 1113 2717.75 1122.78 2715.64 1131.11 2711.43 1137.98 2707.21 1144.86 2701.15 1149.34 2693.23 1151.42L2692.26 1148.3C2698.5 1146.22 2703.14 1142.11 2706.18 1135.98 2709.22 1129.84 2710.74 1122.05 2710.74 1112.59 2710.74 1103.46 2709.23 1095.88 2706.2 1089.84 2703.17 1083.8 2698.49 1079.74 2692.14 1077.66Z" fill-rule="evenodd"/><text fill="#000000" fill-opacity="0" font-family="Arial,Arial_MSFontService,sans-serif" font-size="76.8804" x="2692.14" y="1141.81">)</text><path d="M2312.5 1525.5 2863.04 1525.5" stroke="#4472C4" stroke-width="6.875" stroke-miterlimit="8" fill="none" fill-rule="evenodd"/><path d="M2573.5 1525.57 2573.5 1150.5" stroke="#4472C4" stroke-width="6.875" stroke-miterlimit="8" stroke-dasharray="27.5 20.625" fill="none" fill-rule="evenodd"/><path d="M2478.16 1563.24 2480.23 1565.99C2476.12 1569.34 2472.91 1573.13 2470.58 1577.36 2468.26 1581.59 2467.1 1585.96 2467.1 1590.47 2467.1 1593.58 2467.69 1595.96 2468.86 1597.62 2470.04 1599.29 2471.69 1600.12 2473.83 1600.12 2475.82 1600.12 2477.53 1599.31 2478.93 1597.68 2480.34 1596.06 2481.38 1593.69 2482.05 1590.55L2485.38 1575.27 2492.18 1575.27 2489.1 1589.21C2488.75 1590.81 2488.58 1592.29 2488.58 1593.67 2488.58 1595.83 2489.04 1597.45 2489.98 1598.52 2490.91 1599.58 2492.22 1600.12 2493.93 1600.12 2496.17 1600.12 2498.16 1599.3 2499.88 1597.66 2501.61 1596.03 2502.96 1593.65 2503.92 1590.51 2504.88 1587.38 2505.36 1583.73 2505.36 1579.57 2505.36 1577.11 2505.02 1574.59 2504.34 1572.01 2503.67 1569.43 2502.72 1567.29 2501.51 1565.59L2504.26 1563.24C2506.96 1565.8 2509 1568.63 2510.36 1571.71 2511.73 1574.79 2512.41 1578.1 2512.41 1581.64 2512.41 1585.61 2511.62 1589.27 2510.06 1592.62 2508.49 1595.97 2506.27 1598.59 2503.39 1600.48 2500.51 1602.37 2497.22 1603.32 2493.52 1603.32 2489.04 1603.32 2485.97 1601.1 2484.32 1596.67L2484.16 1596.67C2483.21 1598.16 2482.22 1599.35 2481.18 1600.26 2480.14 1601.16 2478.84 1601.9 2477.27 1602.47 2475.7 1603.03 2473.84 1603.32 2471.68 1603.32 2469.6 1603.32 2467.69 1602.85 2465.94 1601.92 2464.2 1600.99 2462.79 1599.53 2461.71 1597.54 2460.63 1595.56 2460.09 1593.12 2460.09 1590.23 2460.09 1585.31 2461.67 1580.49 2464.83 1575.76 2467.99 1571.03 2472.43 1566.86 2478.16 1563.24Z" fill-rule="evenodd"/><text fill="#000000" fill-opacity="0" font-family="Arial,Arial_MSFontService,sans-serif" font-size="40.0815" x="2460.09" y="1598.31">𝜔</text><path d="M2546.59 1584.67 2596.52 1584.67 2596.52 1590.07 2546.59 1590.07ZM2546.59 1567.86 2596.52 1567.86 2596.52 1573.25 2546.59 1573.25Z" fill-rule="evenodd"/><text fill="#000000" fill-opacity="0" font-family="Arial,Arial_MSFontService,sans-serif" font-size="22.209" x="2546.59" y="1587.29">=</text><path d="M2639.56 1544.71 2646.53 1544.71C2646.64 1545.77 2647.38 1546.55 2648.74 1547.05 2650.11 1547.55 2652.14 1547.8 2654.84 1547.8 2656.19 1547.8 2657.5 1547.73 2658.77 1547.61 2660.04 1547.49 2661.85 1547.19 2664.2 1546.7L2664.73 1550.43C2659.35 1551.27 2655.22 1552.36 2652.33 1553.71 2649.44 1555.06 2647.27 1556.61 2645.83 1558.35 2644.38 1560.1 2643.66 1561.99 2643.66 1564.05 2643.66 1565.94 2644.29 1567.38 2645.56 1568.36 2646.83 1569.35 2648.63 1569.84 2650.95 1569.84 2652.14 1569.84 2653.36 1569.72 2654.6 1569.48L2656.71 1569.07 2657.44 1572.72 2654.52 1573.29C2650.74 1574.02 2647.42 1575.03 2644.57 1576.33 2641.72 1577.62 2639.53 1579.17 2638 1580.97 2636.48 1582.76 2635.71 1584.77 2635.71 1586.98 2635.71 1588.5 2635.94 1589.73 2636.4 1590.67 2636.86 1591.62 2637.63 1592.5 2638.69 1593.31 2639.76 1594.12 2641.44 1595.09 2643.74 1596.23 2646.44 1597.55 2648.38 1598.66 2649.55 1599.55 2650.73 1600.44 2651.58 1601.37 2652.11 1602.34 2652.63 1603.32 2652.9 1604.51 2652.9 1605.91 2652.9 1608.42 2651.92 1610.75 2649.98 1612.9 2648.03 1615.05 2644.79 1617.34 2640.25 1619.77L2638.43 1616.81C2640.54 1615.57 2642.06 1614.6 2643.01 1613.9 2643.95 1613.19 2644.71 1612.49 2645.28 1611.79 2645.85 1611.09 2646.24 1610.42 2646.47 1609.8 2646.7 1609.18 2646.82 1608.52 2646.82 1607.82 2646.82 1606.9 2646.63 1606.12 2646.25 1605.49 2645.87 1604.85 2645.16 1604.19 2644.12 1603.5 2643.08 1602.81 2641.48 1601.98 2639.32 1601.01 2637.08 1600.03 2635.19 1599.01 2633.65 1597.95 2632.11 1596.88 2630.84 1595.56 2629.86 1593.98 2628.87 1592.4 2628.38 1590.54 2628.38 1588.4 2628.38 1584.95 2629.78 1581.88 2632.59 1579.2 2635.4 1576.53 2639.66 1574.27 2645.36 1572.44L2645.36 1572.11C2639.69 1570.65 2636.85 1567.87 2636.85 1563.76 2636.85 1560.87 2638.08 1558.38 2640.56 1556.29 2643.03 1554.19 2647.02 1552.42 2652.53 1550.96L2652.53 1550.79 2652.01 1550.79C2648.22 1550.79 2645.23 1550.27 2643.03 1549.23 2640.83 1548.19 2639.67 1546.69 2639.56 1544.71Z" fill-rule="evenodd"/><text fill="#000000" fill-opacity="0" font-family="Arial,Arial_MSFontService,sans-serif" font-size="75.0566" x="2628.38" y="1610.39">𝜉</text><path d="M2678.2 1578.86 2680.35 1578.86 2675.11 1602.03 2675.94 1602.03C2676.69 1602.03 2677.51 1601.87 2678.38 1601.55 2679.26 1601.23 2680.12 1600.82 2680.99 1600.32 2681.85 1599.81 2682.68 1599.24 2683.48 1598.6 2684.27 1597.97 2684.97 1597.33 2685.58 1596.68 2686.18 1596.04 2686.66 1595.43 2687.02 1594.85 2687.38 1594.27 2687.56 1593.79 2687.56 1593.39 2687.56 1592.91 2687.4 1592.53 2687.08 1592.23 2686.76 1591.93 2686.19 1591.73 2685.35 1591.63L2685.71 1589.73 2696.43 1589.73 2697.18 1591.57C2695.93 1592.65 2694.72 1593.64 2693.57 1594.55 2692.42 1595.47 2691.29 1596.34 2690.19 1597.19 2689.09 1598.03 2687.99 1598.86 2686.89 1599.68 2685.78 1600.49 2684.66 1601.33 2683.51 1602.21 2683.98 1603.72 2684.47 1605.25 2684.97 1606.81 2685.46 1608.37 2685.96 1609.91 2686.45 1611.44 2686.69 1612.26 2686.92 1612.96 2687.12 1613.54 2687.33 1614.13 2687.56 1614.6 2687.79 1614.97 2688.03 1615.34 2688.29 1615.61 2688.57 1615.79 2688.85 1615.97 2689.18 1616.06 2689.58 1616.06 2689.86 1616.06 2690.15 1616.01 2690.45 1615.91 2690.74 1615.81 2691.08 1615.63 2691.44 1615.37 2691.81 1615.11 2692.23 1614.76 2692.69 1614.32 2693.16 1613.87 2693.69 1613.31 2694.29 1612.63L2696.31 1614.57C2695.38 1615.52 2694.51 1616.35 2693.71 1617.04 2692.9 1617.74 2692.14 1618.31 2691.41 1618.75 2690.69 1619.2 2689.99 1619.53 2689.31 1619.74 2688.64 1619.94 2687.95 1620.05 2687.26 1620.05 2686.01 1620.05 2685 1619.74 2684.24 1619.11 2683.47 1618.49 2682.82 1617.59 2682.28 1616.43 2681.75 1615.27 2681.26 1613.86 2680.81 1612.22 2680.36 1610.57 2679.84 1608.73 2679.25 1606.71 2679.11 1606.23 2678.97 1605.85 2678.84 1605.56 2678.72 1605.27 2678.55 1605.05 2678.35 1604.9 2678.15 1604.75 2677.91 1604.66 2677.61 1604.62 2677.31 1604.58 2676.93 1604.56 2676.48 1604.56L2674.57 1604.56 2671.29 1619.51 2665.57 1619.51 2672.78 1587.52C2673.02 1586.47 2673.19 1585.64 2673.29 1585.04 2673.39 1584.43 2673.44 1583.89 2673.44 1583.41 2673.44 1583.04 2673.37 1582.71 2673.24 1582.43 2673.12 1582.15 2672.9 1581.93 2672.6 1581.76 2672.31 1581.59 2671.91 1581.47 2671.41 1581.39 2670.92 1581.31 2670.3 1581.26 2669.57 1581.24L2670.01 1579.21Z" fill-rule="evenodd"/><text fill="#000000" fill-opacity="0" font-family="Arial,Arial_MSFontService,sans-serif" font-size="41.1929" x="2665.57" y="1614.9">𝑘</text><path d="M2325.5 1506.5C2371.66 1506.23 2417.83 1505.96 2446.28 1501.67 2474.73 1497.38 2483.05 1493.09 2496.2 1480.75 2509.35 1468.41 2516.06 1467.87 2525.19 1427.64 2534.31 1387.4 2545.05 1275.55 2550.95 1239.34 2556.86 1203.13 2556.86 1216 2560.62 1210.37 2564.37 1204.74 2573.5 1205.54 2573.5 1205.54L2573.5 1205.54" stroke="#ED7D31" stroke-width="6.875" stroke-miterlimit="8" fill="none" fill-rule="evenodd"/><path d="M0 301C46.1644 300.731 92.3287 300.463 120.779 296.171 149.229 291.879 157.55 287.588 170.701 275.249 183.853 262.91 190.563 262.374 199.688 222.139 208.814 181.903 219.55 70.0493 225.454 33.8376 231.359-2.37416 231.359 10.5012 235.117 4.86812 238.874-0.764928 248 0.0396896 248 0.0396896L248 0.0396896" stroke="#ED7D31" stroke-width="6.875" stroke-miterlimit="8" fill="none" fill-rule="evenodd" transform="matrix(-1 0 0 1 2821.5 1208.5)"/><path d="M2599.11 1431.94 2548.34 1430.46 2548.47 1425.88 2599.25 1427.36ZM2595 1415.77 2622.09 1430.32 2594.2 1443.26ZM2552.59 1442.05 2525.5 1427.5 2553.39 1414.56Z" fill="#4472C4"/><path d="M2699.54 1266.82 2701.89 1266.82 2693.95 1302.2 2695.24 1302.2C2697.27 1302.2 2699.55 1301.32 2702.07 1299.55 2704.6 1297.78 2706.62 1296.13 2708.13 1294.62 2709.64 1293.11 2710.4 1291.65 2710.4 1290.24 2710.4 1288.92 2709.48 1288.18 2707.64 1288.02L2708.09 1286.03 2721.22 1286.03 2721.99 1288.02C2719.75 1290.04 2717.37 1292.03 2714.86 1293.97L2704.81 1301.75 2708.78 1316.38C2709.1 1317.63 2709.39 1318.53 2709.65 1319.08 2709.91 1319.63 2710.2 1320.05 2710.54 1320.32 2710.88 1320.59 2711.33 1320.72 2711.9 1320.72 2712.6 1320.72 2713.44 1320.34 2714.41 1319.59 2715.38 1318.83 2716.49 1317.74 2717.74 1316.3L2720.05 1318.57C2717.61 1321.14 2715.6 1322.92 2714.01 1323.92 2712.41 1324.92 2710.87 1325.42 2709.39 1325.42 2707.55 1325.42 2706.09 1324.9 2705.01 1323.86 2703.93 1322.82 2703.08 1321.09 2702.46 1318.65L2699.78 1308.12C2699.51 1307.06 2699.24 1306.33 2698.97 1305.93 2698.7 1305.52 2698.39 1305.25 2698.04 1305.12 2697.69 1304.98 2697.07 1304.92 2696.17 1304.92L2693.38 1304.92 2689.16 1324.77 2682.15 1324.77 2692.57 1278.45C2692.92 1276.88 2693.17 1275.66 2693.32 1274.78 2693.47 1273.91 2693.54 1273.13 2693.54 1272.45 2693.54 1271.32 2693.2 1270.52 2692.51 1270.06 2691.82 1269.6 2690.58 1269.35 2688.8 1269.29L2689.28 1267.18Z" fill-rule="evenodd"/><text fill="#000000" fill-opacity="0" font-family="Arial,Arial_MSFontService,sans-serif" font-size="58.6025" x="2682.15" y="1318.1">𝑘</text><path d="M2658.99 1402.97C2660.69 1402.97 2662.04 1403.53 2663.02 1404.65 2664.01 1405.78 2664.5 1407.24 2664.5 1409.05 2664.5 1410.54 2664.19 1412.12 2663.57 1413.79L2664.06 1413.96C2666.54 1410.25 2669.02 1407.5 2671.47 1405.71 2673.93 1403.91 2676.42 1403.01 2678.93 1403.01 2681.53 1403.01 2683.5 1403.75 2684.85 1405.22 2686.2 1406.69 2686.87 1408.82 2686.87 1411.6L2686.87 1412.17C2686.87 1412.36 2686.86 1412.56 2686.83 1412.78 2689.16 1409.48 2691.47 1407.03 2693.78 1405.42 2696.09 1403.82 2698.49 1403.01 2700.98 1403.01 2703.46 1403.01 2705.38 1403.73 2706.73 1405.16 2708.08 1406.59 2708.76 1408.61 2708.76 1411.2 2708.76 1412.9 2708.37 1415.32 2707.58 1418.45L2704.95 1429.07C2704.22 1432.02 2703.86 1434.1 2703.86 1435.31 2703.86 1436.39 2704.03 1437.18 2704.38 1437.66 2704.73 1438.15 2705.29 1438.39 2706.04 1438.39 2706.85 1438.39 2707.72 1438.06 2708.64 1437.4 2709.56 1436.74 2710.85 1435.48 2712.53 1433.61L2714.84 1435.88C2712.52 1438.34 2710.49 1440.15 2708.76 1441.31 2707.03 1442.47 2705.06 1443.05 2702.84 1443.05 2701.09 1443.05 2699.68 1442.43 2698.63 1441.17 2697.57 1439.91 2697.05 1438.31 2697.05 1436.37 2697.05 1434.61 2697.49 1432.03 2698.38 1428.63L2700.17 1421.61C2700.82 1419.08 2701.24 1417.2 2701.44 1415.98 2701.65 1414.77 2701.75 1413.78 2701.75 1413.02 2701.75 1411.16 2701.44 1409.81 2700.82 1408.99 2700.19 1408.17 2699.18 1407.75 2697.78 1407.75 2696.64 1407.75 2695.43 1408.18 2694.13 1409.03 2692.83 1409.88 2691.47 1411.21 2690.04 1413 2688.6 1414.8 2687.44 1416.57 2686.53 1418.31 2685.63 1420.05 2684.9 1422.18 2684.36 1424.69L2680.67 1442.41 2673.66 1442.41 2678.32 1421.82C2678.89 1419.3 2679.28 1417.45 2679.48 1416.24 2679.68 1415.04 2679.78 1414.01 2679.78 1413.14 2679.78 1411.2 2679.44 1409.81 2678.75 1408.99 2678.06 1408.17 2676.99 1407.75 2675.53 1407.75 2674.5 1407.75 2673.33 1408.18 2672.02 1409.03 2670.71 1409.88 2669.31 1411.25 2667.83 1413.12 2666.34 1415 2665.18 1416.81 2664.34 1418.53 2663.5 1420.26 2662.8 1422.37 2662.23 1424.86L2658.38 1442.41 2651.37 1442.41 2657.29 1416.71C2657.88 1414.12 2658.18 1412.12 2658.18 1410.71 2658.18 1409.63 2658.01 1408.85 2657.65 1408.36 2657.3 1407.88 2656.75 1407.63 2655.99 1407.63 2655.16 1407.63 2654.27 1407.98 2653.34 1408.67 2652.41 1409.36 2651.13 1410.6 2649.51 1412.42L2647.2 1410.15C2649.58 1407.66 2651.62 1405.84 2653.34 1404.69 2655.05 1403.55 2656.94 1402.97 2658.99 1402.97ZM2729.45 1384.45 2736.42 1384.45C2736.53 1385.5 2737.27 1386.28 2738.63 1386.78 2739.99 1387.28 2742.03 1387.53 2744.73 1387.53 2746.08 1387.53 2747.39 1387.47 2748.66 1387.35 2749.93 1387.23 2751.74 1386.92 2754.09 1386.44L2754.62 1390.17C2749.24 1391 2745.11 1392.1 2742.22 1393.45 2739.33 1394.8 2737.16 1396.35 2735.71 1398.09 2734.27 1399.83 2733.54 1401.73 2733.54 1403.78 2733.54 1405.67 2734.18 1407.11 2735.45 1408.1 2736.72 1409.09 2738.52 1409.58 2740.84 1409.58 2742.03 1409.58 2743.24 1409.46 2744.49 1409.21L2746.59 1408.81 2747.32 1412.46 2744.41 1413.02C2740.62 1413.75 2737.31 1414.77 2734.46 1416.06 2731.61 1417.36 2729.42 1418.91 2727.89 1420.7 2726.36 1422.5 2725.6 1424.51 2725.6 1426.72 2725.6 1428.23 2725.83 1429.46 2726.29 1430.41 2726.75 1431.35 2727.51 1432.23 2728.58 1433.04 2729.65 1433.85 2731.33 1434.83 2733.63 1435.96 2736.33 1437.29 2738.27 1438.39 2739.44 1439.28 2740.62 1440.18 2741.47 1441.11 2741.99 1442.08 2742.52 1443.05 2742.78 1444.24 2742.78 1445.65 2742.78 1448.16 2741.81 1450.49 2739.87 1452.64 2737.92 1454.79 2734.68 1457.08 2730.14 1459.51L2728.32 1456.55C2730.42 1455.31 2731.95 1454.33 2732.9 1453.63 2733.84 1452.93 2734.6 1452.23 2735.17 1451.52 2735.73 1450.82 2736.13 1450.16 2736.36 1449.54 2736.59 1448.92 2736.71 1448.25 2736.71 1447.55 2736.71 1446.63 2736.52 1445.86 2736.14 1445.22 2735.76 1444.59 2735.05 1443.93 2734.01 1443.24 2732.97 1442.55 2731.37 1441.72 2729.21 1440.74 2726.97 1439.77 2725.07 1438.75 2723.53 1437.68 2721.99 1436.62 2720.73 1435.29 2719.74 1433.71 2718.76 1432.13 2718.27 1430.27 2718.27 1428.14 2718.27 1424.68 2719.67 1421.61 2722.48 1418.94 2725.29 1416.27 2729.55 1414.01 2735.25 1412.17L2735.25 1411.85C2729.57 1410.39 2726.74 1407.61 2726.74 1403.5 2726.74 1400.61 2727.97 1398.12 2730.44 1396.02 2732.92 1393.93 2736.91 1392.15 2742.42 1390.69L2742.42 1390.53 2741.89 1390.53C2738.11 1390.53 2735.12 1390.01 2732.92 1388.97 2730.71 1387.93 2729.56 1386.42 2729.45 1384.45Z" fill-rule="evenodd"/><text fill="#000000" fill-opacity="0" font-family="Arial,Arial_MSFontService,sans-serif" font-size="75.0566" x="2647.2" y="1450.13">𝑚𝜉</text><path d="M2646.39 1361.22 2674.39 1361.22 2702.39 1361.22 2730.39 1361.22 2758.39 1361.22 2758.39 1366.22 2730.39 1366.22 2702.39 1366.22 2674.39 1366.22 2646.39 1366.22Z" fill-rule="evenodd"/></g></svg>