<?xml version="1.0" encoding="utf-8"?>
<!-- Generator: Adobe Illustrator 22.1.0, SVG Export Plug-In . SVG Version: 6.00 Build 0)  -->
<svg version="1.1" id="图层_1" xmlns="http://www.w3.org/2000/svg" xmlns:xlink="http://www.w3.org/1999/xlink" x="0px" y="0px"
	 viewBox="0 0 336.7 222.9" style="enable-background:new 0 0 336.7 222.9;" xml:space="preserve">
<style type="text/css">
	.st0{fill:none;stroke:#000000;stroke-width:5;stroke-miterlimit:10;}
	.st1{fill:none;stroke:#000000;stroke-width:3;stroke-miterlimit:10;}
	.st2{fill:none;stroke:#000000;stroke-miterlimit:10;}
	.st3{fill:none;stroke:#000000;stroke-width:3;stroke-miterlimit:10;stroke-dasharray:11.8388,11.8388;}
</style>
<g>
	<g>
		<g>
			<line class="st0" x1="108.6" y1="18.8" x2="108.6" y2="29.9"/>
			<g>
				<polygon points="108.6,42.6 101.3,24.7 108.6,28.9 115.9,24.7 				"/>
			</g>
		</g>
	</g>
	<g>
		<g>
			<line class="st0" x1="138.7" y1="42.6" x2="138.7" y2="31.5"/>
			<g>
				<polygon points="138.7,18.8 146.1,36.7 138.7,32.5 131.4,36.7 				"/>
			</g>
		</g>
	</g>
	<ellipse class="st1" cx="123.9" cy="30.7" rx="34" ry="16.6"/>
</g>
<g>
	<g>
		<g>
			<line class="st0" x1="194.3" y1="18.8" x2="194.3" y2="29.9"/>
			<g>
				<polygon points="194.3,42.6 187,24.7 194.3,28.9 201.6,24.7 				"/>
			</g>
		</g>
	</g>
	<g>
		<g>
			<line class="st0" x1="224.4" y1="42.6" x2="224.4" y2="31.5"/>
			<g>
				<polygon points="224.4,18.8 231.8,36.7 224.4,32.5 217.1,36.7 				"/>
			</g>
		</g>
	</g>
	<ellipse class="st1" cx="209.6" cy="30.7" rx="34" ry="16.6"/>
</g>
<g>
	<g>
		<g>
			<line class="st0" x1="108.7" y1="106.4" x2="108.7" y2="117.4"/>
			<g>
				<polygon points="108.7,130.2 101.4,112.2 108.7,116.5 116,112.2 				"/>
			</g>
		</g>
	</g>
	<g>
		<g>
			<line class="st0" x1="138.8" y1="130.2" x2="138.8" y2="119.1"/>
			<g>
				<polygon points="138.8,106.4 146.1,124.3 138.8,120 131.5,124.3 				"/>
			</g>
		</g>
	</g>
	<ellipse class="st1" cx="124" cy="118.3" rx="34" ry="16.6"/>
</g>
<g>
	<g>
		<g>
			<line class="st0" x1="194.4" y1="106.4" x2="194.4" y2="117.4"/>
			<g>
				<polygon points="194.4,130.2 187.1,112.2 194.4,116.5 201.7,112.2 				"/>
			</g>
		</g>
	</g>
	<g>
		<g>
			<line class="st0" x1="224.5" y1="130.2" x2="224.5" y2="119.1"/>
			<g>
				<polygon points="224.5,106.4 231.8,124.3 224.5,120 217.2,124.3 				"/>
			</g>
		</g>
	</g>
	<ellipse class="st1" cx="209.7" cy="118.3" rx="34" ry="16.6"/>
</g>
<g>
	<circle class="st2" cx="123.9" cy="74.5" r="21.6"/>
	<g>
		<g>
			<line class="st2" x1="123.9" y1="74.5" x2="132.4" y2="62.7"/>
			<g>
				<polygon points="136.5,56.9 134,67.4 132.1,63.1 127.4,62.6 				"/>
			</g>
		</g>
	</g>
	<g>
		<path d="M120.1,87.4l5-11.4h0.3l4.7,11.4H120.1z M128.1,86.7l-3.3-8.2l-3.6,8.2H128.1z"/>
	</g>
</g>
<g>
	<circle class="st2" cx="209.6" cy="74.5" r="21.6"/>
	<g>
		<g>
			<line class="st2" x1="209.6" y1="74.5" x2="218.1" y2="62.7"/>
			<g>
				<polygon points="222.2,56.9 219.7,67.4 217.8,63.1 213.1,62.6 				"/>
			</g>
		</g>
	</g>
	<g>
		<path d="M205.8,87.4l5-11.4h0.3l4.7,11.4H205.8z M213.8,86.7l-3.3-8.2l-3.6,8.2H213.8z"/>
	</g>
</g>
<g>
	<circle class="st2" cx="124" cy="162.1" r="21.6"/>
	<g>
		<g>
			<line class="st2" x1="124" y1="162.1" x2="132.5" y2="150.2"/>
			<g>
				<polygon points="136.6,144.5 134.1,154.9 132.2,150.7 127.5,150.2 				"/>
			</g>
		</g>
	</g>
	<g>
		<path d="M120.2,175l5-11.4h0.3l4.7,11.4H120.2z M128.2,174.3l-3.3-8.2l-3.6,8.2H128.2z"/>
	</g>
</g>
<g>
	<circle class="st2" cx="209.7" cy="162.1" r="21.6"/>
	<g>
		<g>
			<line class="st2" x1="209.7" y1="162.1" x2="218.2" y2="150.2"/>
			<g>
				<polygon points="222.3,144.5 219.8,154.9 217.9,150.7 213.2,150.2 				"/>
			</g>
		</g>
	</g>
	<g>
		<path d="M205.9,175l5-11.4h0.3l4.7,11.4H205.9z M213.9,174.3l-3.3-8.2l-3.6,8.2H213.9z"/>
	</g>
</g>
<g>
	<g>
		<g>
			<line class="st0" x1="280.1" y1="20.6" x2="280.1" y2="31.7"/>
			<g>
				<polygon points="280.1,44.4 272.8,26.5 280.1,30.7 287.4,26.5 				"/>
			</g>
		</g>
	</g>
	<g>
		<g>
			<line class="st0" x1="310.2" y1="44.4" x2="310.2" y2="33.3"/>
			<g>
				<polygon points="310.2,20.6 317.6,38.5 310.2,34.3 302.9,38.5 				"/>
			</g>
		</g>
	</g>
	<ellipse class="st1" cx="295.4" cy="32.5" rx="34" ry="16.6"/>
</g>
<g>
	<circle class="st2" cx="295.4" cy="76.3" r="21.6"/>
	<g>
		<g>
			<line class="st2" x1="295.4" y1="76.3" x2="282.6" y2="69.2"/>
			<g>
				<polygon points="276.5,65.7 287.1,67 283.1,69.4 283.2,74.1 				"/>
			</g>
		</g>
	</g>
	<g>
		<path d="M291.6,89.2l5-11.4h0.3l4.7,11.4H291.6z M299.6,88.5l-3.3-8.2l-3.6,8.2H299.6z"/>
	</g>
</g>
<g>
	<g>
		<g>
			<line class="st0" x1="280.1" y1="108.2" x2="280.1" y2="119.2"/>
			<g>
				<polygon points="280.1,131.9 272.8,114 280.1,118.3 287.4,114 				"/>
			</g>
		</g>
	</g>
	<g>
		<g>
			<line class="st0" x1="310.2" y1="131.9" x2="310.2" y2="120.9"/>
			<g>
				<polygon points="310.2,108.2 317.6,126.1 310.2,121.8 302.9,126.1 				"/>
			</g>
		</g>
	</g>
	<ellipse class="st1" cx="295.4" cy="120.1" rx="34" ry="16.6"/>
</g>
<g>
	<circle class="st2" cx="295.4" cy="163.8" r="21.6"/>
	<g>
		<g>
			<line class="st2" x1="295.4" y1="163.8" x2="282.6" y2="156.7"/>
			<g>
				<polygon points="276.5,153.3 287.1,154.6 283.1,157 283.2,161.7 				"/>
			</g>
		</g>
	</g>
	<g>
		<path d="M291.6,176.8l5-11.4h0.3l4.7,11.4H291.6z M299.6,176.1l-3.3-8.2l-3.6,8.2H299.6z"/>
	</g>
</g>
<g>
	<g>
		<g>
			<line class="st0" x1="24.5" y1="104.1" x2="24.5" y2="115.1"/>
			<g>
				<polygon points="24.5,127.9 17.1,109.9 24.5,114.2 31.8,109.9 				"/>
			</g>
		</g>
	</g>
	<g>
		<g>
			<line class="st0" x1="54.6" y1="127.9" x2="54.6" y2="116.8"/>
			<g>
				<polygon points="54.6,104.1 61.9,122 54.6,117.7 47.3,122 				"/>
			</g>
		</g>
	</g>
	<ellipse class="st1" cx="39.7" cy="116" rx="34" ry="16.6"/>
</g>
<g>
	<circle class="st2" cx="39.7" cy="159.8" r="21.6"/>
	<g>
		<g>
			<line class="st2" x1="39.7" y1="159.8" x2="27" y2="152.6"/>
			<g>
				<polygon points="20.8,149.2 31.5,150.5 27.5,152.9 27.6,157.6 				"/>
			</g>
		</g>
	</g>
	<g>
		<path d="M36,172.7l5-11.4h0.3l4.7,11.4H36z M44,172l-3.3-8.2l-3.6,8.2H44z"/>
	</g>
</g>
<g>
	<g>
		<g>
			<line class="st0" x1="22.9" y1="12.7" x2="22.9" y2="23.8"/>
			<g>
				<polygon points="22.9,36.5 15.6,18.6 22.9,22.8 30.2,18.6 				"/>
			</g>
		</g>
	</g>
	<g>
		<g>
			<line class="st0" x1="53" y1="36.5" x2="53" y2="25.4"/>
			<g>
				<polygon points="53,12.7 60.3,30.6 53,26.4 45.7,30.6 				"/>
			</g>
		</g>
	</g>
	<ellipse class="st1" cx="38.2" cy="24.6" rx="34" ry="16.6"/>
</g>
<g>
	<circle class="st2" cx="38.2" cy="68.4" r="21.6"/>
	<g>
		<g>
			<line class="st2" x1="38.2" y1="68.4" x2="25.4" y2="61.3"/>
			<g>
				<polygon points="19.3,57.8 29.9,59.1 25.9,61.5 26,66.2 				"/>
			</g>
		</g>
	</g>
	<g>
		<path d="M34.4,81.3l5-11.4h0.3l4.7,11.4H34.4z M42.4,80.6l-3.3-8.2l-3.6,8.2H42.4z"/>
	</g>
</g>
<g>
	<path class="st3" d="M240.7,189.9H92.9c-6.6,0-12-5.4-12-12V20c0-6.6,5.4-12,12-12h147.8c6.6,0,12,5.4,12,12v157.9
		C252.7,184.5,247.3,189.9,240.7,189.9z"/>
</g>
<g>
	<g>
		<line class="st2" x1="87.9" y1="203.2" x2="245.6" y2="202.7"/>
		<g>
			<polygon points="80.9,203.2 90.8,207.2 88.4,203.2 90.8,199.1 			"/>
		</g>
		<g>
			<polygon points="252.7,202.7 242.7,206.8 245.1,202.7 242.7,198.6 			"/>
		</g>
	</g>
</g>
<g>
	<path d="M171.1,205.1v0.3c-0.4,0.1-0.7,0.3-0.7,0.8c0,0.4,0.2,0.7,0.7,0.8c0.5-0.5,0.9-0.9,1.4-1.2c0.5-0.3,0.9-0.5,1.2-0.5
		c0.3,0,0.5,0.2,0.5,0.6c0,0.4-0.2,0.8-0.7,1.1c-0.5,0.3-1,0.5-1.7,0.5c-0.2,0-0.4,0-0.6-0.1c-0.5,0.7-0.8,1.2-0.8,1.7
		c0,0.2,0.1,0.5,0.2,0.7c0.8-0.4,1.5-0.6,2-0.6c0.7,0,1,0.3,1,0.8c0,0.3-0.1,0.5-0.4,0.7c-0.3,0.2-0.6,0.3-1.1,0.3
		c-0.6,0-1.1-0.2-1.6-0.5c-0.7,0.3-1.2,0.8-1.6,1.5c-0.4,0.6-0.6,1.3-0.6,2c0,0.6,0.2,1,0.5,1.2c0.3,0.3,0.9,0.4,1.6,0.4
		c0.4,0,0.8,0.1,1,0.2s0.4,0.3,0.6,0.6s0.3,0.7,0.3,1.3c0,0.8-0.2,1.5-0.6,2c-0.4,0.6-0.9,0.9-1.5,0.9c-0.4,0-0.8-0.1-1-0.3
		c-0.2-0.2-0.4-0.5-0.4-0.8c0-0.2,0.1-0.4,0.2-0.5c0.1-0.1,0.3-0.2,0.5-0.2c0.2,0,0.4,0.1,0.7,0.2c0.4,0.2,0.7,0.3,0.9,0.3
		c0.4,0,0.7-0.2,0.7-0.7c0-0.5-0.3-0.8-1-0.8h-0.8c-0.6,0-1.1-0.1-1.5-0.2c-0.3-0.1-0.6-0.4-0.9-0.9c-0.2-0.5-0.4-1-0.4-1.6
		c0-1,0.3-2,0.8-2.8c0.5-0.8,1.3-1.6,2.3-2.2c-0.1-0.2-0.2-0.5-0.2-0.7c0-0.6,0.3-1.2,0.8-1.9c-0.8-0.2-1.1-0.5-1.1-1.1
		c0-0.3,0.1-0.6,0.4-0.9S170.7,205.1,171.1,205.1z"/>
</g>
<g>
</g>
<g>
</g>
<g>
</g>
<g>
</g>
<g>
</g>
<g>
</g>
</svg>
