<svg width="1571" height="605" xmlns="http://www.w3.org/2000/svg" xmlns:xlink="http://www.w3.org/1999/xlink" xml:space="preserve" overflow="hidden"><defs><clipPath id="clip0"><rect x="52" y="1791" width="1571" height="605"/></clipPath></defs><g clip-path="url(#clip0)" transform="translate(-52 -1791)"><path d="M57.4999 2393.5 357.805 1947.5 1616.5 1947.5 1316.19 2393.5Z" stroke="#4472C4" stroke-width="4.58333" stroke-miterlimit="8" fill="none" fill-rule="evenodd"/><path d="M57.4999 2238.5 357.131 1793.5 1617.5 1793.5 1317.87 2238.5Z" stroke="#4472C4" stroke-width="4.58333" stroke-miterlimit="8" fill="#FFFFFF" fill-rule="evenodd"/><path d="M420.938 1822.5 420.938 1884.27 414.063 1884.27 414.063 1822.5ZM431.25 1879.69 417.501 1907.19 403.75 1879.69Z" fill="#4472C4"/><path d="M697.978 1905.07 676.851 1847.02 683.312 1844.67 704.439 1902.72ZM668.728 1854.86 672.243 1824.31 694.57 1845.45Z" fill="#4472C4"/><path d="M919.18 1873.44 970.633 1855.72 972.872 1862.22 921.418 1879.94ZM962.942 1847.47 993.421 1851.51 971.896 1873.47Z" fill="#4472C4"/><path d="M1262.2 1847.75 1215.07 1874.96 1211.63 1869 1258.76 1841.79ZM1224.2 1881.59 1193.51 1883.44 1210.45 1857.78Z" fill="#4472C4"/><path d="M1459.62 1874.1 1510.75 1855.49 1513.1 1861.95 1461.97 1880.56ZM1502.92 1847.36 1533.46 1850.88 1512.32 1873.2Z" fill="#4472C4"/><path d="M332.935 1989.78 292.41 2036.4 287.222 2031.89 327.747 1985.27ZM303.2 2039.7 274.781 2051.44 282.446 2021.66Z" fill="#4472C4"/><path d="M557.915 1979.65 584.021 2035.63 577.79 2038.54 551.684 1982.56ZM591.43 2027.12 590.59 2057.86 566.506 2038.74Z" fill="#4472C4"/><path d="M880.312 2029.58 826.72 2020.13 827.914 2013.36 881.505 2022.81ZM829.443 2031.08 804.748 2012.77 834.218 2004Z" fill="#4472C4"/><path d="M1095.25 2058.09 1116.38 2000.05 1122.84 2002.4 1101.71 2060.45ZM1105.12 2000.83 1127.44 1979.69 1130.96 2010.23Z" fill="#4472C4"/><path d="M1344.42 2022.81 1398.01 2013.36 1399.2 2020.13 1345.61 2029.58ZM1391.71 2004 1421.18 2012.77 1396.48 2031.08Z" fill="#4472C4"/><path d="M161.018 2142.49 204.697 2186.17 199.836 2191.03 156.157 2147.35ZM208.748 2175.63 218.471 2204.8 189.303 2195.08Z" fill="#4472C4"/><path d="M462.63 2217.16 451.904 2156.32 458.674 2155.13 469.401 2215.96ZM442.544 2162.63 451.31 2133.16 469.626 2157.85Z" fill="#4472C4"/><path d="M698.945 2205.09 738.651 2157.77 743.917 2162.19 704.212 2209.51ZM727.805 2154.65 756.014 2142.42 748.871 2172.33Z" fill="#4472C4"/><path d="M1034.09 2191.31 982.954 2172.7 985.305 2166.24 1036.44 2184.85ZM983.733 2183.96 962.595 2161.63 993.139 2158.12Z" fill="#4472C4"/><path d="M1237.3 2152.55 1284.42 2179.76 1280.99 2185.71 1233.86 2158.5ZM1285.61 2168.53 1302.55 2194.19 1271.86 2192.35Z" fill="#4472C4"/><path d="M57.4999 2238.5 57.5003 2392.98" stroke="#4472C4" stroke-width="4.58333" stroke-miterlimit="8" fill="none" fill-rule="evenodd"/><path d="M1317.5 2238.5 1317.5 2392.98" stroke="#4472C4" stroke-width="4.58333" stroke-miterlimit="8" fill="none" fill-rule="evenodd"/><path d="M1616.5 1794.5 1616.5 1948.98" stroke="#4472C4" stroke-width="4.58333" stroke-miterlimit="8" fill="none" fill-rule="evenodd"/><path d="M1378.67 2261.11C1375.24 2261.11 1372.37 2262.77 1370.07 2266.08 1367.78 2269.39 1365.9 2274.41 1364.44 2281.14L1358.97 2306.55C1358.84 2307.17 1358.77 2307.69 1358.77 2308.13 1358.77 2308.86 1358.94 2309.48 1359.27 2309.99 1359.61 2310.5 1360.11 2311.01 1360.77 2311.51 1361.44 2312.01 1362.29 2312.44 1363.35 2312.81 1364.4 2313.17 1365.74 2313.35 1367.36 2313.35 1369.55 2313.35 1371.54 2312.68 1373.34 2311.33 1375.13 2309.98 1376.55 2308.06 1377.57 2305.57 1378.6 2303.09 1379.11 2300.25 1379.11 2297.06 1379.11 2294.01 1378.27 2291.62 1376.58 2289.89 1374.89 2288.16 1372.48 2287.17 1369.35 2286.93L1369.91 2284.05C1372.83 2283.84 1375.46 2283 1377.82 2281.54 1380.17 2280.08 1382.01 2278.17 1383.35 2275.81 1384.68 2273.44 1385.35 2270.85 1385.35 2268.05 1385.35 2265.8 1384.79 2264.09 1383.67 2262.9 1382.55 2261.71 1380.88 2261.11 1378.67 2261.11ZM1379.07 2257.91C1383.23 2257.91 1386.45 2258.84 1388.72 2260.69 1390.99 2262.54 1392.12 2265.17 1392.12 2268.57 1392.12 2269.95 1391.93 2271.44 1391.53 2273.05 1391.14 2274.66 1390.37 2276.24 1389.2 2277.79 1388.04 2279.35 1386.43 2280.78 1384.36 2282.11 1382.29 2283.43 1379.76 2284.57 1376.76 2285.51L1376.68 2285.84C1383.11 2288.11 1386.33 2292.33 1386.33 2298.52 1386.33 2301.71 1385.62 2304.7 1384.2 2307.48 1382.78 2310.26 1380.7 2312.47 1377.96 2314.1 1375.22 2315.74 1372.06 2316.56 1368.49 2316.56 1366.2 2316.56 1364.18 2316.37 1362.44 2316.01 1360.69 2315.64 1358.89 2315.02 1357.03 2314.12L1352.69 2333.33 1346.08 2333.33 1358.08 2279.76C1359.16 2274.95 1360.62 2270.96 1362.46 2267.8 1364.29 2264.64 1366.59 2262.2 1369.35 2260.49 1372.1 2258.77 1375.34 2257.91 1379.07 2257.91Z" fill-rule="evenodd"/><text fill="#000000" fill-opacity="0" font-family="Arial,Arial_MSFontService,sans-serif" font-size="75.4214" x="1346.08" y="2323.91">𝛽</text></g></svg>