<svg width="1313" height="570" xmlns="http://www.w3.org/2000/svg" xmlns:xlink="http://www.w3.org/1999/xlink" xml:space="preserve" overflow="hidden"><defs><clipPath id="clip0"><rect x="1733" y="460" width="1313" height="570"/></clipPath></defs><g clip-path="url(#clip0)" transform="translate(-1733 -460)"><path d="M1936.2 492.411 1921.77 517.943 1937.62 517.943 1936.93 504.893C1936.85 503.11 1936.78 500.881 1936.73 498.206 1936.67 495.532 1936.65 493.6 1936.65 492.411ZM1936.44 483.86 1942.56 483.86 1945.48 529.048C1945.62 531.182 1945.86 532.851 1946.21 534.053 1946.56 535.255 1947.04 536.147 1947.65 536.728 1948.26 537.309 1949.14 537.68 1950.3 537.842L1949.86 539.828 1933 539.828 1933.44 537.842C1935.04 537.707 1936.23 537.086 1937.01 535.978 1937.79 534.87 1938.19 532.925 1938.19 530.142 1938.19 529.088 1938.15 527.94 1938.06 526.697L1937.78 521.469 1919.95 521.469 1917.72 525.441C1916.67 527.305 1915.9 528.906 1915.41 530.243 1914.92 531.581 1914.68 532.763 1914.68 533.789 1914.68 536.059 1916.04 537.41 1918.77 537.842L1918.33 539.828 1901.75 539.828 1902.2 537.842C1903.04 537.734 1903.83 537.403 1904.57 536.849 1905.31 536.295 1906.1 535.458 1906.94 534.337 1907.78 533.215 1908.95 531.358 1910.47 528.764Z" fill-rule="evenodd"/><text fill="#000000" fill-opacity="0" font-family="Arial,Arial_MSFontService,sans-serif" font-size="55.9683" x="1901.75" y="532.832">𝐴</text><path d="M1987.03 481.266 1988.12 484.387C1981.8 486.467 1977.12 490.527 1974.08 496.565 1971.04 502.604 1969.52 510.189 1969.52 519.321 1969.52 528.778 1971.04 536.572 1974.08 542.706 1977.12 548.839 1981.76 552.945 1988 555.026L1987.03 558.146C1979.11 556.066 1973.05 551.588 1968.83 544.712 1964.62 537.835 1962.51 529.507 1962.51 519.727 1962.51 509.973 1964.63 501.645 1968.85 494.741 1973.08 487.838 1979.14 483.346 1987.03 481.266Z" fill-rule="evenodd"/><text fill="#000000" fill-opacity="0" font-family="Arial,Arial_MSFontService,sans-serif" font-size="76.8804" x="1962.51" y="548.536">(</text><path d="M2011.52 500.395 2013.58 503.151C2009.48 506.501 2006.26 510.29 2003.94 514.519 2001.61 518.747 2000.45 523.117 2000.45 527.629 2000.45 530.736 2001.04 533.121 2002.22 534.782 2003.39 536.444 2005.05 537.275 2007.18 537.275 2009.18 537.275 2010.88 536.464 2012.29 534.843 2013.69 533.222 2014.73 530.844 2015.41 527.71L2018.73 512.432 2025.54 512.432 2022.46 526.373C2022.11 527.967 2021.93 529.453 2021.93 530.831 2021.93 532.992 2022.4 534.607 2023.33 535.674 2024.26 536.741 2025.58 537.275 2027.28 537.275 2029.52 537.275 2031.51 536.458 2033.24 534.823 2034.97 533.188 2036.31 530.804 2037.27 527.67 2038.23 524.536 2038.71 520.888 2038.71 516.727 2038.71 514.269 2038.37 511.749 2037.7 509.169 2037.02 506.589 2036.08 504.448 2034.86 502.746L2037.62 500.395C2040.32 502.962 2042.35 505.785 2043.72 508.865 2045.08 511.945 2045.76 515.255 2045.76 518.794 2045.76 522.766 2044.98 526.427 2043.41 529.777 2041.84 533.128 2039.62 535.748 2036.75 537.64 2033.87 539.531 2030.58 540.477 2026.88 540.477 2022.39 540.477 2019.33 538.261 2017.68 533.83L2017.51 533.83C2016.57 535.316 2015.58 536.512 2014.54 537.417 2013.5 538.322 2012.19 539.058 2010.63 539.625 2009.06 540.193 2007.19 540.477 2005.03 540.477 2002.95 540.477 2001.04 540.01 1999.3 539.078 1997.56 538.146 1996.14 536.687 1995.06 534.701 1993.98 532.716 1993.44 530.277 1993.44 527.386 1993.44 522.469 1995.02 517.646 1998.18 512.918 2001.34 508.19 2005.79 504.015 2011.52 500.395Z" fill-rule="evenodd"/><text fill="#000000" fill-opacity="0" font-family="Arial,Arial_MSFontService,sans-serif" font-size="40.0815" x="1993.44" y="535.466">𝜔</text><path d="M2053.62 481.266C2061.51 483.346 2067.57 487.838 2071.8 494.741 2076.02 501.645 2078.14 509.973 2078.14 519.727 2078.14 529.507 2076.03 537.835 2071.82 544.712 2067.6 551.588 2061.54 556.066 2053.62 558.146L2052.65 555.026C2058.89 552.945 2063.53 548.839 2066.57 542.706 2069.61 536.572 2071.13 528.778 2071.13 519.321 2071.13 510.189 2069.61 502.604 2066.59 496.565 2063.56 490.527 2058.87 486.467 2052.53 484.387Z" fill-rule="evenodd"/><text fill="#000000" fill-opacity="0" font-family="Arial,Arial_MSFontService,sans-serif" font-size="76.8804" x="2052.53" y="548.536">)</text><path d="M1733.5 942.5 2284.04 942.5" stroke="#4472C4" stroke-width="6.875" stroke-miterlimit="8" fill="none" fill-rule="evenodd"/><path d="M1994.5 942.573 1994.5 567.5" stroke="#4472C4" stroke-width="6.875" stroke-miterlimit="8" fill="none" fill-rule="evenodd"/><path d="M1984.91 968.593 1986.98 971.349C1982.87 974.699 1979.65 978.489 1977.33 982.717 1975.01 986.945 1973.84 991.316 1973.84 995.828 1973.84 998.935 1974.43 1001.32 1975.61 1002.98 1976.78 1004.64 1978.44 1005.47 1980.57 1005.47 1982.57 1005.47 1984.27 1004.66 1985.68 1003.04 1987.08 1001.42 1988.12 999.043 1988.8 995.909L1992.12 980.63 1998.93 980.63 1995.85 994.571C1995.5 996.165 1995.32 997.651 1995.32 999.029 1995.32 1001.19 1995.79 1002.81 1996.72 1003.87 1997.65 1004.94 1998.97 1005.47 2000.67 1005.47 2002.92 1005.47 2004.9 1004.66 2006.63 1003.02 2008.36 1001.39 2009.7 999.002 2010.66 995.868 2011.62 992.734 2012.1 989.087 2012.1 984.926 2012.1 982.467 2011.77 979.948 2011.09 977.367 2010.41 974.787 2009.47 972.646 2008.25 970.944L2011.01 968.593C2013.71 971.16 2015.74 973.983 2017.11 977.063 2018.47 980.144 2019.15 983.453 2019.15 986.993 2019.15 990.964 2018.37 994.625 2016.8 997.976 2015.24 1001.33 2013.01 1003.95 2010.14 1005.84 2007.26 1007.73 2003.97 1008.67 2000.27 1008.67 1995.78 1008.67 1992.72 1006.46 1991.07 1002.03L1990.91 1002.03C1989.96 1003.51 1988.97 1004.71 1987.93 1005.61 1986.89 1006.52 1985.58 1007.26 1984.02 1007.82 1982.45 1008.39 1980.59 1008.67 1978.42 1008.67 1976.34 1008.67 1974.43 1008.21 1972.69 1007.28 1970.95 1006.34 1969.54 1004.89 1968.45 1002.9 1967.37 1000.91 1966.83 998.475 1966.83 995.584 1966.83 990.667 1968.41 985.844 1971.58 981.116 1974.74 976.388 1979.18 972.214 1984.91 968.593Z" fill-rule="evenodd"/><text fill="#000000" fill-opacity="0" font-family="Arial,Arial_MSFontService,sans-serif" font-size="40.0815" x="1966.83" y="1003.66">𝜔</text><path d="M1746.5 922.5C1792.66 922.232 1838.83 921.964 1867.28 917.672 1895.73 913.38 1904.05 909.088 1917.2 896.749 1930.35 884.411 1937.06 883.874 1946.19 843.639 1955.31 803.404 1966.05 691.549 1971.95 655.338 1977.86 619.126 1977.86 632.001 1981.62 626.368 1985.37 620.735 1994.5 621.54 1994.5 621.54L1994.5 621.54" stroke="#ED7D31" stroke-width="6.875" stroke-miterlimit="8" fill="none" fill-rule="evenodd"/><path d="M0 301C46.1644 300.731 92.3289 300.463 120.779 296.171 149.229 291.879 157.55 287.588 170.702 275.249 183.853 262.91 190.563 262.374 199.688 222.139 208.814 181.903 219.55 70.0493 225.455 33.8376 231.359-2.37416 231.359 10.5012 235.117 4.86812 238.875-0.764928 248 0.0396896 248 0.0396896L248 0.0396896" stroke="#ED7D31" stroke-width="6.875" stroke-miterlimit="8" fill="none" fill-rule="evenodd" transform="matrix(-1 0 0 1 2242.5 624.5)"/><path d="M2491.5 943.5 3042.04 943.5" stroke="#4472C4" stroke-width="6.875" stroke-miterlimit="8" fill="none" fill-rule="evenodd"/><path d="M2752.5 943.573 2752.5 568.5" stroke="#4472C4" stroke-width="6.875" stroke-miterlimit="8" fill="none" fill-rule="evenodd"/><path d="M2742.93 970.203 2744.99 972.959C2740.89 976.309 2737.67 980.098 2735.35 984.327 2733.02 988.555 2731.86 992.925 2731.86 997.437 2731.86 1000.54 2732.45 1002.93 2733.63 1004.59 2734.8 1006.25 2736.46 1007.08 2738.59 1007.08 2740.59 1007.08 2742.29 1006.27 2743.7 1004.65 2745.1 1003.03 2746.14 1000.65 2746.82 997.518L2750.14 982.239 2756.95 982.239 2753.87 996.181C2753.52 997.775 2753.34 999.261 2753.34 1000.64 2753.34 1002.8 2753.81 1004.41 2754.74 1005.48 2755.67 1006.55 2756.99 1007.08 2758.69 1007.08 2760.93 1007.08 2762.92 1006.27 2764.65 1004.63 2766.38 1003 2767.72 1000.61 2768.68 997.478 2769.64 994.344 2770.12 990.696 2770.12 986.535 2770.12 984.077 2769.78 981.557 2769.11 978.977 2768.43 976.397 2767.49 974.256 2766.27 972.553L2769.03 970.203C2771.73 972.77 2773.76 975.593 2775.13 978.673 2776.49 981.753 2777.17 985.063 2777.17 988.602 2777.17 992.574 2776.39 996.235 2774.82 999.585 2773.25 1002.94 2771.03 1005.56 2768.16 1007.45 2765.28 1009.34 2761.99 1010.28 2758.29 1010.28 2753.8 1010.28 2750.74 1008.07 2749.09 1003.64L2748.93 1003.64C2747.98 1005.12 2746.99 1006.32 2745.95 1007.22 2744.91 1008.13 2743.6 1008.87 2742.04 1009.43 2740.47 1010 2738.6 1010.28 2736.44 1010.28 2734.36 1010.28 2732.45 1009.82 2730.71 1008.89 2728.97 1007.95 2727.55 1006.5 2726.47 1004.51 2725.39 1002.52 2724.85 1000.08 2724.85 997.194 2724.85 992.277 2726.43 987.454 2729.59 982.726 2732.75 977.998 2737.2 973.823 2742.93 970.203Z" fill-rule="evenodd"/><text fill="#000000" fill-opacity="0" font-family="Arial,Arial_MSFontService,sans-serif" font-size="40.0815" x="2724.85" y="1005.27">𝜔</text><path d="M2694.22 494.021 2679.79 519.553 2695.64 519.553 2694.95 506.503C2694.87 504.72 2694.8 502.491 2694.75 499.816 2694.69 497.141 2694.66 495.209 2694.66 494.021ZM2694.46 485.469 2700.58 485.469 2703.5 530.657C2703.63 532.792 2703.88 534.46 2704.23 535.662 2704.58 536.865 2705.06 537.756 2705.67 538.337 2706.28 538.918 2707.16 539.29 2708.32 539.452L2707.88 541.438 2691.02 541.438 2691.46 539.452C2693.06 539.317 2694.25 538.695 2695.03 537.588 2695.81 536.48 2696.2 534.534 2696.2 531.752 2696.2 530.698 2696.16 529.55 2696.08 528.307L2695.8 523.079 2677.97 523.079 2675.74 527.05C2674.68 528.915 2673.91 530.516 2673.43 531.853 2672.94 533.19 2672.7 534.372 2672.7 535.399 2672.7 537.669 2674.06 539.019 2676.79 539.452L2676.35 541.438 2659.77 541.438 2660.22 539.452C2661.05 539.344 2661.84 539.013 2662.59 538.459 2663.33 537.905 2664.12 537.067 2664.96 535.946 2665.8 534.825 2666.97 532.967 2668.48 530.374Z" fill-rule="evenodd"/><text fill="#000000" fill-opacity="0" font-family="Arial,Arial_MSFontService,sans-serif" font-size="55.9683" x="2659.77" y="534.442">𝐴</text><path d="M2745.05 482.876 2746.14 485.996C2739.82 488.077 2735.14 492.136 2732.1 498.175 2729.06 504.213 2727.54 511.799 2727.54 520.931 2727.54 530.387 2729.06 538.182 2732.1 544.315 2735.14 550.448 2739.78 554.555 2746.02 556.635L2745.05 559.756C2737.13 557.676 2731.07 553.197 2726.85 546.321 2722.64 539.445 2720.53 531.117 2720.53 521.336 2720.53 511.582 2722.64 503.254 2726.87 496.351 2731.1 489.448 2737.16 484.956 2745.05 482.876Z" fill-rule="evenodd"/><text fill="#000000" fill-opacity="0" font-family="Arial,Arial_MSFontService,sans-serif" font-size="76.8804" x="2720.53" y="550.146">(</text><path d="M2769.53 502.005 2771.6 504.76C2767.49 508.111 2764.28 511.9 2761.96 516.128 2759.63 520.357 2758.47 524.727 2758.47 529.239 2758.47 532.346 2759.06 534.73 2760.23 536.392 2761.41 538.054 2763.06 538.884 2765.2 538.884 2767.2 538.884 2768.9 538.074 2770.3 536.453 2771.71 534.832 2772.75 532.454 2773.43 529.32L2776.75 514.041 2783.56 514.041 2780.48 527.983C2780.13 529.577 2779.95 531.063 2779.95 532.441 2779.95 534.602 2780.42 536.216 2781.35 537.284 2782.28 538.351 2783.6 538.884 2785.3 538.884 2787.54 538.884 2789.53 538.067 2791.26 536.432 2792.99 534.798 2794.33 532.414 2795.29 529.279 2796.25 526.145 2796.73 522.498 2796.73 518.337 2796.73 515.878 2796.39 513.359 2795.72 510.779 2795.04 508.198 2794.09 506.057 2792.88 504.355L2795.63 502.005C2798.34 504.571 2800.37 507.395 2801.73 510.475 2803.1 513.555 2803.78 516.865 2803.78 520.404 2803.78 524.376 2803 528.037 2801.43 531.387 2799.86 534.737 2797.64 537.358 2794.76 539.249 2791.89 541.14 2788.6 542.086 2784.89 542.086 2780.41 542.086 2777.34 539.871 2775.69 535.44L2775.53 535.44C2774.59 536.926 2773.59 538.121 2772.55 539.026 2771.51 539.931 2770.21 540.668 2768.64 541.235 2767.08 541.802 2765.21 542.086 2763.05 542.086 2760.97 542.086 2759.06 541.62 2757.32 540.688 2755.57 539.756 2754.16 538.297 2753.08 536.311 2752 534.325 2751.46 531.887 2751.46 528.996 2751.46 524.078 2753.04 519.256 2756.2 514.527 2759.36 509.799 2763.81 505.625 2769.53 502.005Z" fill-rule="evenodd"/><text fill="#000000" fill-opacity="0" font-family="Arial,Arial_MSFontService,sans-serif" font-size="40.0815" x="2751.46" y="537.076">𝜔</text><path d="M2811.64 482.876C2819.53 484.956 2825.59 489.448 2829.81 496.351 2834.04 503.254 2836.16 511.582 2836.16 521.336 2836.16 531.117 2834.05 539.445 2829.83 546.321 2825.62 553.197 2819.55 557.676 2811.64 559.756L2810.66 556.635C2816.91 554.555 2821.55 550.448 2824.59 544.315 2827.63 538.182 2829.15 530.387 2829.15 520.931 2829.15 511.799 2827.63 504.213 2824.61 498.175 2821.58 492.136 2816.89 488.077 2810.54 485.996Z" fill-rule="evenodd"/><text fill="#000000" fill-opacity="0" font-family="Arial,Arial_MSFontService,sans-serif" font-size="76.8804" x="2810.54" y="550.146">)</text><path d="M2495.5 927.5C2514.24 925.891 2532.98 924.282 2545.29 921.064 2557.61 917.846 2564.03 913.555 2569.39 908.192 2574.74 902.828 2575.54 894.783 2577.42 888.883 2579.29 882.984 2578.76 894.247 2580.63 872.793 2582.51 851.339 2586.79 792.609 2588.66 760.161 2590.54 727.712 2590.27 695.263 2591.88 678.1 2593.48 660.937 2598.3 657.182 2598.3 657.182 2599.91 652.623 2598.3 650.21 2601.51 650.746 2604.73 651.283 2613.56 646.992 2617.58 660.401 2621.59 673.809 2621.06 699.822 2625.61 731.198 2630.16 762.574 2637.92 822.913 2644.88 848.658 2651.84 874.402 2656.66 877.352 2667.37 885.665 2678.08 893.979 2694.94 895.856 2709.13 898.538 2723.32 901.219 2737.91 901.487 2752.5 901.756" stroke="#ED7D31" stroke-width="6.875" stroke-miterlimit="8" fill="none" fill-rule="evenodd"/><path d="M0 277C18.8125 275.391 37.625 273.782 49.9875 270.564 62.35 267.346 68.8 263.055 74.1749 257.692 79.5498 252.329 80.3563 244.283 82.2376 238.383 84.1189 232.484 83.5813 243.747 85.4626 222.293 87.3439 200.839 91.6437 142.11 93.525 109.661 95.4062 77.2119 95.1376 44.7627 96.75 27.5999 98.3623 10.437 103.2 6.68254 103.2 6.68254 104.812 2.12362 103.2-0.290027 106.425 0.246379 109.65 0.782786 118.519-3.50811 122.55 9.90062 126.581 23.3093 126.044 49.322 130.612 80.698 135.181 112.074 142.975 172.413 149.962 198.158 156.95 223.902 161.787 226.852 172.538 235.165 183.288 243.479 200.219 245.356 214.463 248.038 228.706 250.719 243.353 250.987 258 251.256" stroke="#ED7D31" stroke-width="6.875" stroke-miterlimit="8" fill="none" fill-rule="evenodd" transform="matrix(-1 0 0 1 3013.5 651.5)"/><path d="M2304.5 726.75 2409 726.75 2409 700.5 2461.5 753 2409 805.5 2409 779.25 2304.5 779.25Z" stroke="#2F528F" stroke-width="4.58333" stroke-miterlimit="8" fill="#4472C4" fill-rule="evenodd"/></g></svg>