<svg width="999" height="368" xmlns="http://www.w3.org/2000/svg" xmlns:xlink="http://www.w3.org/1999/xlink" xml:space="preserve" overflow="hidden"><defs><clipPath id="clip0"><rect x="2079" y="554" width="999" height="368"/></clipPath></defs><g clip-path="url(#clip0)" transform="translate(-2079 -554)"><path d="M2079.5 890.062 2194.37 890.063 2194.37 896.938 2079.5 896.937ZM2189.79 879.75 2217.29 893.5 2189.79 907.25Z" fill="#4472C4"/><path d="M2217.5 893.5 2558.78 893.5" stroke="#4472C4" stroke-width="6.875" stroke-miterlimit="8" fill="none" fill-rule="evenodd"/><path d="M2776.84 896.938 2581.42 896.937 2581.42 890.062 2776.84 890.063ZM2586 907.25 2558.5 893.5 2586 879.75Z" fill="#4472C4"/><path d="M2776.5 890.062 2916.81 890.063 2916.81 896.938 2776.5 896.937ZM2912.22 879.75 2939.72 893.5 2912.22 907.25Z" fill="#4472C4"/><path d="M2940.5 893.5 3074.05 893.5" stroke="#4472C4" stroke-width="6.875" stroke-miterlimit="8" fill="none" fill-rule="evenodd"/><path d="M0 0 226.816 305.247" stroke="#4472C4" stroke-width="6.875" stroke-miterlimit="8" stroke-dasharray="27.5 20.625" fill="none" fill-rule="evenodd" transform="matrix(1 0 0 -1 2352.5 893.747)"/><path d="M2579.5 588.5 2812.68 893.747" stroke="#4472C4" stroke-width="6.875" stroke-miterlimit="8" stroke-dasharray="27.5 20.625" fill="none" fill-rule="evenodd"/><path d="M2545.18 566.748 2553.54 558.453 2579.5 584.634 2605.46 558.453 2613.82 566.748 2587.79 593 2613.82 619.252 2605.46 627.547 2579.5 601.366 2553.54 627.547 2545.18 619.252 2571.21 593Z" stroke="#2F528F" stroke-width="4.58333" stroke-miterlimit="8" fill="#4472C4" fill-rule="evenodd"/><path d="M2184.38 757.2 2186.14 757.2 2180.2 783.628 2181.17 783.628C2182.68 783.628 2184.38 782.967 2186.27 781.645 2188.16 780.323 2189.67 779.097 2190.8 777.967 2191.93 776.837 2192.49 775.747 2192.49 774.698 2192.49 773.709 2191.81 773.154 2190.43 773.033L2190.77 771.549 2200.58 771.549 2201.15 773.033C2199.48 774.546 2197.7 776.03 2195.82 777.483L2188.31 783.295 2191.28 794.224C2191.52 795.152 2191.74 795.823 2191.93 796.237 2192.12 796.651 2192.35 796.959 2192.6 797.161 2192.85 797.362 2193.19 797.463 2193.61 797.463 2194.14 797.463 2194.76 797.181 2195.49 796.616 2196.22 796.051 2197.04 795.233 2197.97 794.164L2199.7 795.859C2197.88 797.776 2196.38 799.108 2195.19 799.855 2194 800.602 2192.85 800.975 2191.74 800.975 2190.36 800.975 2189.27 800.587 2188.47 799.81 2187.66 799.032 2187.02 797.736 2186.56 795.919L2184.56 788.048C2184.36 787.261 2184.16 786.716 2183.96 786.414 2183.75 786.111 2183.52 785.909 2183.26 785.808 2183 785.707 2182.53 785.657 2181.87 785.657L2179.78 785.657 2176.63 800.491 2171.39 800.491 2179.17 765.888C2179.43 764.718 2179.62 763.804 2179.73 763.148 2179.84 762.492 2179.9 761.912 2179.9 761.408 2179.9 760.56 2179.64 759.965 2179.13 759.622 2178.61 759.278 2177.69 759.087 2176.36 759.046L2176.72 757.472Z" fill-rule="evenodd"/><text fill="#000000" fill-opacity="0" font-family="Arial,Arial_MSFontService,sans-serif" font-size="43.7754" x="2171.39" y="795.503">𝑘</text><path d="M2894.46 757.199 2896.21 757.199 2890.28 783.628 2891.25 783.628C2892.76 783.628 2894.46 782.967 2896.35 781.645 2898.24 780.323 2899.75 779.097 2900.88 777.967 2902.01 776.837 2902.57 775.747 2902.57 774.697 2902.57 773.708 2901.89 773.153 2900.51 773.032L2900.85 771.549 2910.66 771.549 2911.23 773.032C2909.56 774.546 2907.78 776.029 2905.9 777.482L2898.39 783.295 2901.36 794.224C2901.6 795.152 2901.82 795.823 2902.01 796.237 2902.2 796.651 2902.43 796.958 2902.68 797.16 2902.93 797.362 2903.27 797.463 2903.69 797.463 2904.22 797.463 2904.84 797.18 2905.57 796.615 2906.3 796.05 2907.12 795.233 2908.05 794.163L2909.78 795.858C2907.96 797.776 2906.46 799.108 2905.27 799.855 2904.08 800.601 2902.93 800.975 2901.82 800.975 2900.44 800.975 2899.35 800.586 2898.55 799.809 2897.74 799.032 2897.1 797.735 2896.64 795.919L2894.64 788.048C2894.44 787.261 2894.24 786.716 2894.03 786.413 2893.83 786.11 2893.6 785.909 2893.34 785.808 2893.08 785.707 2892.61 785.656 2891.95 785.656L2889.86 785.656 2886.71 800.49 2881.47 800.49 2889.25 765.888C2889.51 764.717 2889.7 763.804 2889.81 763.148 2889.92 762.492 2889.98 761.912 2889.98 761.407 2889.98 760.56 2889.72 759.964 2889.21 759.621 2888.69 759.278 2887.77 759.086 2886.44 759.046L2886.8 757.472Z" fill-rule="evenodd"/><text fill="#000000" fill-opacity="0" font-family="Arial,Arial_MSFontService,sans-serif" font-size="43.7754" x="2881.47" y="795.503">𝑘</text><path d="M2923.58 754.535 2929.25 754.535 2929.25 756.249 2921.93 773.849 2919.36 773.08Z" fill-rule="evenodd"/><text fill="#000000" fill-opacity="0" font-family="Arial,Arial_MSFontService,sans-serif" font-size="19.314" x="2919.36" y="771.434">′</text><path d="M2567.53 771.76C2566.51 771.76 2565.49 772.109 2564.49 772.805 2563.49 773.501 2562.4 774.616 2561.21 776.15 2560.02 777.684 2559.09 779.198 2558.42 780.691 2557.76 782.185 2557.23 783.9 2556.85 785.838L2556.61 787.109C2556.4 788.179 2556.28 788.996 2556.23 789.561 2556.18 790.126 2556.15 790.681 2556.15 791.226 2556.15 792.801 2556.49 793.946 2557.17 794.662 2557.84 795.379 2559.01 795.737 2560.66 795.737 2561.69 795.737 2562.64 795.535 2563.51 795.132 2564.38 794.728 2565.2 794.143 2565.98 793.376 2566.75 792.609 2567.45 791.68 2568.08 790.591 2568.71 789.501 2569.27 788.234 2569.76 786.791 2570.25 785.348 2570.63 783.865 2570.88 782.341 2571.13 780.817 2571.26 779.389 2571.26 778.057 2571.26 775.938 2570.96 774.359 2570.37 773.32 2569.77 772.28 2568.83 771.76 2567.53 771.76ZM2554.79 768.188C2556.04 768.188 2557.03 768.602 2557.77 769.429 2558.51 770.257 2558.88 771.357 2558.88 772.729 2558.88 773.859 2558.64 775.05 2558.18 776.302L2558.54 776.423C2562.28 770.953 2565.99 768.219 2569.68 768.219 2571.88 768.219 2573.59 769.056 2574.82 770.731 2576.04 772.406 2576.65 774.768 2576.65 777.815 2576.65 781.145 2575.98 784.42 2574.63 787.639 2573.29 790.858 2571.43 793.411 2569.05 795.298 2566.67 797.185 2564 798.129 2561.06 798.129 2558.37 798.129 2556.14 797.543 2554.37 796.373L2552.97 803.003C2552.67 804.436 2552.52 805.616 2552.52 806.545 2552.52 807.433 2552.75 808.063 2553.2 808.437 2553.65 808.81 2554.54 809.057 2555.85 809.178L2555.61 810.662 2546.25 810.662 2553.55 778.542C2553.97 776.685 2554.18 775.161 2554.18 773.97 2554.18 773.163 2554.05 772.578 2553.79 772.215 2553.53 771.851 2553.11 771.67 2552.55 771.67 2551.92 771.67 2551.26 771.927 2550.57 772.442 2549.87 772.956 2548.92 773.89 2547.71 775.242L2545.98 773.547C2547.8 771.649 2549.34 770.282 2550.6 769.445 2551.86 768.607 2553.26 768.188 2554.79 768.188Z" fill-rule="evenodd"/><text fill="#000000" fill-opacity="0" font-family="Arial,Arial_MSFontService,sans-serif" font-size="42.4736" x="2545.98" y="805.353">𝑝</text></g></svg>