<?xml version="1.0" encoding="utf-8"?>
<!-- Generator: Adobe Illustrator 22.1.0, SVG Export Plug-In . SVG Version: 6.00 Build 0)  -->
<svg version="1.1" id="图层_1" xmlns="http://www.w3.org/2000/svg" xmlns:xlink="http://www.w3.org/1999/xlink" x="0px" y="0px"
	 viewBox="0 0 883 120.7" style="enable-background:new 0 0 883 120.7;" xml:space="preserve">
<style type="text/css">
	.st0{fill:none;stroke:#000000;stroke-width:3;stroke-miterlimit:10;}
	.st1{fill:none;stroke:#000000;stroke-width:5;stroke-miterlimit:10;}
	.st2{fill:none;stroke:#000000;stroke-miterlimit:10;}
</style>
<g>
	<g>
		<line class="st0" x1="16.5" y1="109.6" x2="841" y2="109.6"/>
		<g>
			<polygon points="851.6,109.6 836.7,115.7 840.2,109.6 836.7,103.5 			"/>
		</g>
	</g>
</g>
<g>
	<path d="M371.8,83.3h9.1l-1,3.2h-0.3c0.1-0.5,0.2-0.9,0.2-1.2c0-0.4-0.1-0.8-0.4-1c-0.2-0.2-0.7-0.2-1.5-0.2h-0.9l-2.4,8.2
		c-0.3,1-0.4,1.7-0.4,1.9c0,0.2,0.1,0.4,0.3,0.5s0.5,0.2,1,0.2h0.4l-0.1,0.3h-5.2l0.1-0.3h0.2c0.5,0,0.8-0.1,1.1-0.2
		c0.2-0.1,0.3-0.3,0.5-0.5s0.3-0.8,0.6-1.7l2.5-8.5h-0.7c-0.7,0-1.2,0.1-1.7,0.3c-0.4,0.2-0.8,0.4-1,0.8s-0.5,0.8-0.6,1.4H371
		L371.8,83.3z"/>
	<path d="M380.7,94.4l0.1-0.2h2.5c0.4,0,0.8,0.1,1.1,0.2s0.6,0.3,0.7,0.5c0.2,0.2,0.2,0.5,0.2,0.7c0,0.4-0.1,0.8-0.4,1.1
		c-0.3,0.3-0.8,0.6-1.4,0.7c0.4,0.2,0.7,0.4,0.9,0.6s0.3,0.5,0.3,0.9c0,0.3-0.1,0.7-0.3,1s-0.4,0.6-0.7,0.7c-0.3,0.2-0.6,0.3-1,0.4
		c-0.3,0.1-0.7,0.1-1.3,0.1h-2.5l0.1-0.2c0.3,0,0.4,0,0.5-0.1c0.1-0.1,0.2-0.1,0.3-0.2c0.1-0.1,0.2-0.4,0.3-0.9l1.2-4.2
		c0.1-0.4,0.2-0.6,0.2-0.7c0-0.1,0-0.2-0.1-0.3c-0.1-0.1-0.3-0.1-0.5-0.1C380.8,94.5,380.8,94.5,380.7,94.4z M380.7,100.8
		c0.4,0,0.7,0.1,0.9,0.1c0.5,0,1-0.2,1.4-0.5c0.4-0.3,0.6-0.8,0.6-1.3c0-0.4-0.1-0.7-0.4-1c-0.3-0.2-0.7-0.4-1.2-0.4
		c-0.1,0-0.2,0-0.4,0L380.7,100.8z M381.8,97.3c0.2,0,0.4,0,0.5,0c0.7,0,1.2-0.2,1.6-0.5s0.5-0.7,0.5-1.2c0-0.4-0.1-0.6-0.3-0.8
		c-0.2-0.2-0.5-0.3-1-0.3c-0.1,0-0.3,0-0.5,0.1L381.8,97.3z"/>
	<path d="M388.9,97.3l1.7,2.7c0.3,0.5,0.6,0.8,0.8,0.9c0.2,0.1,0.5,0.2,0.8,0.2l-0.1,0.2h-3l0-0.2c0.2,0,0.4-0.1,0.5-0.2
		c0.1-0.1,0.1-0.2,0.1-0.3c0-0.1,0-0.2-0.1-0.3c0-0.1-0.1-0.2-0.3-0.5l-1.4-2.2l-0.7,2.3c-0.1,0.4-0.2,0.6-0.2,0.7
		c0,0.1,0,0.2,0.1,0.3c0.1,0.1,0.3,0.1,0.7,0.1l-0.1,0.2h-2.7l0.1-0.2c0.3,0,0.4,0,0.5-0.1c0.1-0.1,0.2-0.1,0.3-0.2
		c0.1-0.1,0.2-0.4,0.3-0.9l1.2-4.2c0.1-0.3,0.1-0.6,0.1-0.8c0-0.1,0-0.2-0.1-0.3s-0.3-0.1-0.5-0.1h-0.1l0.1-0.2h2.6l-0.1,0.2
		c-0.2,0-0.4,0-0.5,0.1c-0.1,0.1-0.3,0.2-0.3,0.3s-0.2,0.4-0.3,0.8l-0.5,1.8l2.5-1.9c0.3-0.2,0.5-0.4,0.6-0.6
		c0.1-0.1,0.1-0.2,0.1-0.2c0-0.1,0-0.1-0.1-0.2c-0.1-0.1-0.2-0.1-0.3-0.1l0.1-0.2h2.2l0,0.2c-0.2,0-0.4,0.1-0.6,0.2
		c-0.2,0.1-0.3,0.2-0.5,0.3c-0.1,0-0.4,0.3-1,0.8L388.9,97.3z"/>
	<path d="M394.1,94.3h5.3l-0.6,1.8h-0.2c0.1-0.3,0.1-0.5,0.1-0.7c0-0.2-0.1-0.4-0.2-0.6c-0.1-0.1-0.4-0.1-0.9-0.1H397l-1.4,4.8
		c-0.2,0.6-0.3,1-0.3,1.1c0,0.1,0.1,0.2,0.2,0.3c0.1,0.1,0.3,0.1,0.6,0.1h0.2l-0.1,0.2h-3l0.1-0.2h0.1c0.3,0,0.5,0,0.6-0.1
		c0.1-0.1,0.2-0.2,0.3-0.3c0.1-0.2,0.2-0.5,0.3-1l1.4-4.9h-0.4c-0.4,0-0.7,0.1-1,0.2c-0.2,0.1-0.4,0.3-0.6,0.4
		c-0.2,0.2-0.3,0.5-0.4,0.8h-0.2L394.1,94.3z"/>
</g>
<circle cx="381.6" cy="109.3" r="6.1"/>
<g>
	<g>
		<g>
			<line class="st1" x1="38.8" y1="22" x2="38.8" y2="32"/>
			<g>
				<polygon points="38.8,44.7 31.5,26.8 38.8,31 46.1,26.8 				"/>
			</g>
		</g>
	</g>
	<g>
		<g>
			<line class="st1" x1="67.6" y1="44.7" x2="67.6" y2="34.7"/>
			<g>
				<polygon points="67.6,22 74.9,39.9 67.6,35.7 60.3,39.9 				"/>
			</g>
		</g>
	</g>
	<ellipse class="st0" cx="53.4" cy="33.3" rx="32.4" ry="15.8"/>
</g>
<g>
	<g>
		<g>
			<line class="st1" x1="120.7" y1="22" x2="120.7" y2="32"/>
			<g>
				<polygon points="120.7,44.7 113.4,26.8 120.7,31 128,26.8 				"/>
			</g>
		</g>
	</g>
	<g>
		<g>
			<line class="st1" x1="149.5" y1="44.7" x2="149.5" y2="34.7"/>
			<g>
				<polygon points="149.5,22 156.8,39.9 149.5,35.7 142.2,39.9 				"/>
			</g>
		</g>
	</g>
	<ellipse class="st0" cx="135.3" cy="33.3" rx="32.4" ry="15.8"/>
</g>
<g>
	<g>
		<g>
			<line class="st1" x1="202.6" y1="22" x2="202.6" y2="32"/>
			<g>
				<polygon points="202.6,44.7 195.2,26.8 202.6,31 209.9,26.8 				"/>
			</g>
		</g>
	</g>
	<g>
		<g>
			<line class="st1" x1="231.3" y1="44.7" x2="231.3" y2="34.7"/>
			<g>
				<polygon points="231.3,22 238.7,39.9 231.3,35.7 224,39.9 				"/>
			</g>
		</g>
	</g>
	<ellipse class="st0" cx="217.2" cy="33.3" rx="32.4" ry="15.8"/>
</g>
<g>
	<g>
		<g>
			<line class="st1" x1="284.4" y1="22" x2="284.4" y2="32"/>
			<g>
				<polygon points="284.4,44.7 277.1,26.8 284.4,31 291.7,26.8 				"/>
			</g>
		</g>
	</g>
	<g>
		<g>
			<line class="st1" x1="313.2" y1="44.7" x2="313.2" y2="34.7"/>
			<g>
				<polygon points="313.2,22 320.5,39.9 313.2,35.7 305.9,39.9 				"/>
			</g>
		</g>
	</g>
	<ellipse class="st0" cx="299" cy="33.3" rx="32.4" ry="15.8"/>
</g>
<g>
	<circle class="st2" cx="53.4" cy="75.2" r="20.7"/>
	<g>
		<g>
			<line class="st2" x1="53.4" y1="75.2" x2="61.4" y2="64.1"/>
			<g>
				<polygon points="65.5,58.4 63,68.8 61.1,64.6 56.4,64.1 				"/>
			</g>
		</g>
	</g>
	<g>
		<path d="M49.8,87.5l4.8-10.8h0.3l4.5,10.8H49.8z M57.5,86.9l-3.2-7.8l-3.4,7.8H57.5z"/>
	</g>
</g>
<g>
	<circle class="st2" cx="135.3" cy="75.2" r="20.7"/>
	<g>
		<g>
			<line class="st2" x1="135.3" y1="75.2" x2="145.6" y2="66.3"/>
			<g>
				<polygon points="151,61.7 146.1,71.3 145.2,66.7 140.8,65.1 				"/>
			</g>
		</g>
	</g>
	<g>
		<path d="M131.7,87.5l4.8-10.8h0.3l4.5,10.8H131.7z M139.3,86.9l-3.2-7.8l-3.4,7.8H139.3z"/>
	</g>
</g>
<g>
	<circle class="st2" cx="217.2" cy="75.2" r="20.7"/>
	<g>
		<g>
			<line class="st2" x1="217.2" y1="75.2" x2="229.6" y2="69.6"/>
			<g>
				<polygon points="236.1,66.8 228.6,74.5 229.1,69.9 225.3,67.1 				"/>
			</g>
		</g>
	</g>
	<g>
		<path d="M213.6,87.5l4.8-10.8h0.3l4.5,10.8H213.6z M221.2,86.9l-3.2-7.8l-3.4,7.8H221.2z"/>
	</g>
</g>
<g>
	<circle class="st2" cx="299" cy="75.2" r="20.7"/>
	<g>
		<g>
			<line class="st2" x1="299" y1="75.2" x2="312.6" y2="73.7"/>
			<g>
				<polygon points="319.6,73 310.1,78.1 312,73.8 309.3,70 				"/>
			</g>
		</g>
	</g>
	<g>
		<path d="M295.4,87.5l4.8-10.8h0.3l4.5,10.8H295.4z M303.1,86.9l-3.2-7.8l-3.4,7.8H303.1z"/>
	</g>
</g>
<g>
	<g>
		<g>
			<line class="st1" x1="439.6" y1="19.8" x2="439.6" y2="29.8"/>
			<g>
				<polygon points="439.6,42.5 432.3,24.6 439.6,28.8 447,24.6 				"/>
			</g>
		</g>
	</g>
	<g>
		<g>
			<line class="st1" x1="468.4" y1="42.5" x2="468.4" y2="32.5"/>
			<g>
				<polygon points="468.4,19.8 475.8,37.7 468.4,33.4 461.1,37.7 				"/>
			</g>
		</g>
	</g>
	<ellipse class="st0" cx="454.2" cy="31.1" rx="32.4" ry="15.8"/>
	<g>
		<g>
			<line class="st1" x1="812.5" y1="40.2" x2="812.5" y2="30.2"/>
			<g>
				<polygon points="812.5,17.5 819.8,35.4 812.5,31.2 805.2,35.4 				"/>
			</g>
		</g>
	</g>
	<g>
		<g>
			<line class="st1" x1="857.2" y1="53.8" x2="857.2" y2="43.9"/>
			<g>
				<polygon points="857.2,31.1 864.5,49.1 857.2,44.8 849.9,49.1 				"/>
			</g>
		</g>
	</g>
	<g>
		<g>
			<line class="st1" x1="802.4" y1="56.3" x2="802.4" y2="66.3"/>
			<g>
				<polygon points="802.4,79 795.1,61.1 802.4,65.3 809.7,61.1 				"/>
			</g>
		</g>
	</g>
	<g>
		<g>
			<line class="st1" x1="841.8" y1="67.8" x2="841.8" y2="77.8"/>
			<g>
				<polygon points="841.8,90.5 834.4,72.6 841.8,76.8 849.1,72.6 				"/>
			</g>
		</g>
	</g>
</g>
<g>
	<g>
		<g>
			<line class="st1" x1="521.5" y1="19.8" x2="521.5" y2="29.8"/>
			<g>
				<polygon points="521.5,42.5 514.2,24.6 521.5,28.8 528.8,24.6 				"/>
			</g>
		</g>
	</g>
	<g>
		<g>
			<line class="st1" x1="550.3" y1="42.5" x2="550.3" y2="32.5"/>
			<g>
				<polygon points="550.3,19.8 557.6,37.7 550.3,33.4 543,37.7 				"/>
			</g>
		</g>
	</g>
	<ellipse class="st0" cx="536.1" cy="31.1" rx="32.4" ry="15.8"/>
</g>
<g>
	<g>
		<g>
			<line class="st1" x1="603.4" y1="19.8" x2="603.4" y2="29.8"/>
			<g>
				<polygon points="603.4,42.5 596.1,24.6 603.4,28.8 610.7,24.6 				"/>
			</g>
		</g>
	</g>
	<g>
		<g>
			<line class="st1" x1="632.2" y1="42.5" x2="632.2" y2="32.5"/>
			<g>
				<polygon points="632.2,19.8 639.5,37.7 632.2,33.4 624.9,37.7 				"/>
			</g>
		</g>
	</g>
	<ellipse class="st0" cx="618" cy="31.1" rx="32.4" ry="15.8"/>
</g>
<g>
	<g>
		<g>
			<line class="st1" x1="685.2" y1="19.8" x2="685.2" y2="29.8"/>
			<g>
				<polygon points="685.2,42.5 677.9,24.6 685.2,28.8 692.6,24.6 				"/>
			</g>
		</g>
	</g>
	<g>
		<g>
			<line class="st1" x1="714" y1="42.5" x2="714" y2="32.5"/>
			<g>
				<polygon points="714,19.8 721.4,37.7 714,33.4 706.7,37.7 				"/>
			</g>
		</g>
	</g>
	<ellipse class="st0" cx="699.8" cy="31.1" rx="32.4" ry="15.8"/>
</g>
<g>
	<circle class="st2" cx="454.2" cy="73" r="20.7"/>
	<g>
		<g>
			<line class="st2" x1="454.2" y1="73" x2="462.2" y2="61.9"/>
			<g>
				<polygon points="466.3,56.2 463.8,66.6 461.9,62.4 457.2,61.9 				"/>
			</g>
		</g>
	</g>
	<g>
		<path d="M450.7,85.3l4.8-10.8h0.3l4.5,10.8H450.7z M458.3,84.7l-3.2-7.8l-3.4,7.8H458.3z"/>
	</g>
</g>
<g>
	<circle class="st2" cx="536.1" cy="73" r="20.7"/>
	<g>
		<g>
			<line class="st2" x1="536.1" y1="73" x2="525.2" y2="81.1"/>
			<g>
				<polygon points="519.5,85.3 525.1,76.1 525.6,80.8 529.9,82.6 				"/>
			</g>
		</g>
	</g>
	<g>
		<path d="M532.5,85.3l4.8-10.8h0.3l4.5,10.8H532.5z M540.2,84.7l-3.2-7.8l-3.4,7.8H540.2z"/>
	</g>
</g>
<g>
	<circle class="st2" cx="618" cy="73" r="20.7"/>
	<g>
		<g>
			<line class="st2" x1="618" y1="73" x2="628.9" y2="81.1"/>
			<g>
				<polygon points="634.5,85.3 624.1,82.6 628.5,80.8 629,76.1 				"/>
			</g>
		</g>
	</g>
	<g>
		<path d="M614.4,85.3l4.8-10.8h0.3l4.5,10.8H614.4z M622,84.7l-3.2-7.8l-3.4,7.8H622z"/>
	</g>
</g>
<g>
	<circle class="st2" cx="699.8" cy="73" r="20.7"/>
	<g>
		<g>
			<line class="st2" x1="699.8" y1="73" x2="688.2" y2="66"/>
			<g>
				<polygon points="682.1,62.3 692.7,64 688.6,66.2 688.5,70.9 				"/>
			</g>
		</g>
	</g>
	<g>
		<path d="M696.3,85.3l4.8-10.8h0.3l4.5,10.8H696.3z M703.9,84.7l-3.2-7.8l-3.4,7.8H703.9z"/>
	</g>
</g>
<g>
	<path d="M763.5,83.3h9.1l-1,3.2h-0.3c0.1-0.5,0.2-0.9,0.2-1.2c0-0.4-0.1-0.8-0.4-1c-0.2-0.2-0.7-0.2-1.5-0.2h-0.9l-2.4,8.2
		c-0.3,1-0.4,1.7-0.4,1.9c0,0.2,0.1,0.4,0.3,0.5s0.5,0.2,1,0.2h0.4l-0.1,0.3h-5.2l0.1-0.3h0.2c0.5,0,0.8-0.1,1.1-0.2
		c0.2-0.1,0.3-0.3,0.5-0.5s0.3-0.8,0.6-1.7L767,84h-0.7c-0.7,0-1.2,0.1-1.7,0.3c-0.4,0.2-0.8,0.4-1,0.8s-0.5,0.8-0.6,1.4h-0.3
		L763.5,83.3z"/>
	<path d="M772.5,94.4l0.1-0.2h2.5c0.4,0,0.8,0.1,1.1,0.2s0.6,0.3,0.7,0.5c0.2,0.2,0.2,0.5,0.2,0.7c0,0.4-0.1,0.8-0.4,1.1
		c-0.3,0.3-0.8,0.6-1.4,0.7c0.4,0.2,0.7,0.4,0.9,0.6s0.3,0.5,0.3,0.9c0,0.3-0.1,0.7-0.3,1s-0.4,0.6-0.7,0.7c-0.3,0.2-0.6,0.3-1,0.4
		c-0.3,0.1-0.7,0.1-1.3,0.1h-2.5l0.1-0.2c0.3,0,0.4,0,0.5-0.1c0.1-0.1,0.2-0.1,0.3-0.2c0.1-0.1,0.2-0.4,0.3-0.9l1.2-4.2
		c0.1-0.4,0.2-0.6,0.2-0.7c0-0.1,0-0.2-0.1-0.3c-0.1-0.1-0.3-0.1-0.5-0.1C772.6,94.5,772.5,94.5,772.5,94.4z M772.5,100.8
		c0.4,0,0.7,0.1,0.9,0.1c0.5,0,1-0.2,1.4-0.5c0.4-0.3,0.6-0.8,0.6-1.3c0-0.4-0.1-0.7-0.4-1c-0.3-0.2-0.7-0.4-1.2-0.4
		c-0.1,0-0.2,0-0.4,0L772.5,100.8z M773.5,97.3c0.2,0,0.4,0,0.5,0c0.7,0,1.2-0.2,1.6-0.5s0.5-0.7,0.5-1.2c0-0.4-0.1-0.6-0.3-0.8
		c-0.2-0.2-0.5-0.3-1-0.3c-0.1,0-0.3,0-0.5,0.1L773.5,97.3z"/>
	<path d="M784.7,94.1l-0.5,2.2H784l0-0.6c0-0.2-0.1-0.4-0.1-0.5c-0.1-0.2-0.2-0.3-0.3-0.4c-0.1-0.1-0.3-0.2-0.5-0.3
		c-0.2-0.1-0.4-0.1-0.6-0.1c-0.6,0-1.1,0.2-1.6,0.5c-0.6,0.4-1,1-1.4,1.8c-0.3,0.6-0.4,1.3-0.4,2c0,0.7,0.2,1.2,0.6,1.6
		c0.4,0.4,0.9,0.6,1.5,0.6c0.5,0,0.9-0.1,1.3-0.3c0.4-0.2,0.7-0.5,1-1h0.2c-0.4,0.6-0.8,1-1.3,1.3c-0.5,0.3-1,0.4-1.6,0.4
		c-0.6,0-1.1-0.1-1.5-0.4s-0.8-0.6-1-1c-0.2-0.4-0.3-0.9-0.3-1.4c0-0.8,0.2-1.5,0.6-2.2c0.4-0.7,1-1.3,1.7-1.7
		c0.7-0.4,1.4-0.6,2.1-0.6c0.3,0,0.7,0.1,1.1,0.2c0.2,0.1,0.3,0.1,0.4,0.1s0.2,0,0.2-0.1s0.2-0.1,0.3-0.3H784.7z"/>
	<path d="M784.4,101.4l0.6-2.6h0.2c0,0.2,0,0.5,0,0.6c0,0.5,0.1,0.8,0.4,1.1s0.7,0.4,1.2,0.4c0.4,0,0.8-0.1,1-0.4
		c0.2-0.3,0.3-0.6,0.3-1c0-0.2-0.1-0.4-0.2-0.6c-0.2-0.3-0.6-0.8-1.3-1.5c-0.3-0.3-0.6-0.6-0.7-0.8c-0.2-0.3-0.2-0.6-0.2-0.9
		c0-0.5,0.2-0.9,0.5-1.2c0.4-0.3,0.8-0.5,1.4-0.5c0.2,0,0.4,0,0.5,0.1c0.1,0,0.3,0.1,0.6,0.2c0.2,0.1,0.3,0.1,0.3,0.1
		c0,0,0.1,0,0.2,0c0.1,0,0.2,0,0.3-0.1c0.1-0.1,0.2-0.2,0.3-0.3h0.2l-0.5,2.3h-0.2c0-0.2,0-0.4,0-0.5c0-0.4-0.1-0.8-0.4-1
		c-0.3-0.3-0.6-0.4-1.1-0.4c-0.4,0-0.6,0.1-0.9,0.3c-0.2,0.2-0.3,0.4-0.3,0.7c0,0.2,0.1,0.5,0.2,0.7s0.5,0.6,1,1.1
		c0.5,0.5,0.8,0.9,1,1.1s0.2,0.6,0.2,0.9c0,0.4-0.1,0.7-0.3,1c-0.2,0.3-0.5,0.6-0.8,0.8c-0.3,0.2-0.7,0.3-1.1,0.3
		c-0.2,0-0.4,0-0.6-0.1c-0.2,0-0.5-0.1-0.9-0.3c-0.1-0.1-0.2-0.1-0.3-0.1c-0.2,0-0.4,0.1-0.5,0.4H784.4z"/>
</g>
<circle cx="773.4" cy="109.3" r="6.1"/>
<g>
</g>
<g>
</g>
<g>
</g>
<g>
</g>
<g>
</g>
<g>
</g>
</svg>
