<?xml version="1.0" encoding="utf-8"?>
<!-- Generator: Adobe Illustrator 22.1.0, SVG Export Plug-In . SVG Version: 6.00 Build 0)  -->
<svg version="1.1" id="图层_1" xmlns="http://www.w3.org/2000/svg" xmlns:xlink="http://www.w3.org/1999/xlink" x="0px" y="0px"
	 viewBox="0 0 383 35.1" style="enable-background:new 0 0 383 35.1;" xml:space="preserve">
<style type="text/css">
	.st0{fill:none;stroke:#000000;stroke-width:3;stroke-miterlimit:10;}
	.st1{fill:none;stroke:#FF0000;stroke-width:6;stroke-miterlimit:10;}
</style>
<g>
	<g>
		<line class="st0" x1="3.7" y1="27.1" x2="352.7" y2="27.1"/>
		<g>
			<polygon points="363.3,27.1 348.4,33.2 351.9,27.1 348.4,21 			"/>
		</g>
	</g>
</g>
<g>
	<path d="M178.7,3.5h9.1l-1,3.2h-0.3c0.1-0.5,0.2-0.9,0.2-1.2c0-0.4-0.1-0.8-0.4-1c-0.2-0.2-0.7-0.2-1.5-0.2h-0.9l-2.4,8.2
		c-0.3,1-0.4,1.7-0.4,1.9c0,0.2,0.1,0.4,0.3,0.5s0.5,0.2,1,0.2h0.4l-0.1,0.3h-5.2l0.1-0.3h0.2c0.5,0,0.8-0.1,1.1-0.2
		c0.2-0.1,0.3-0.3,0.5-0.5s0.3-0.8,0.6-1.7l2.5-8.5h-0.7c-0.7,0-1.2,0.1-1.7,0.3c-0.4,0.2-0.8,0.4-1,0.8s-0.5,0.8-0.6,1.4h-0.3
		L178.7,3.5z"/>
	<path d="M190.1,20.3c-0.4,0.4-0.7,0.7-1.1,0.9c-0.4,0.2-0.7,0.3-1.1,0.3c-0.5,0-0.9-0.1-1.1-0.4c-0.3-0.3-0.4-0.6-0.4-1.1
		c0-0.5,0.1-1,0.4-1.5c0.3-0.5,0.7-0.9,1.2-1.2c0.5-0.3,1-0.5,1.5-0.5c0.4,0,0.7,0.1,0.8,0.2c0.2,0.2,0.3,0.3,0.3,0.6
		c0,0.2-0.1,0.4-0.2,0.5c-0.1,0.1-0.2,0.2-0.4,0.2c-0.1,0-0.2,0-0.3-0.1c-0.1-0.1-0.1-0.2-0.1-0.3c0-0.1,0-0.1,0-0.2
		c0-0.1,0.1-0.1,0.2-0.2c0.1-0.1,0.1-0.1,0.1-0.2c0,0,0-0.1,0-0.1c0-0.1,0-0.1-0.1-0.2c-0.1-0.1-0.2-0.1-0.4-0.1
		c-0.3,0-0.7,0.1-1,0.4c-0.3,0.2-0.6,0.6-0.8,1c-0.3,0.5-0.4,1.1-0.4,1.6c0,0.3,0.1,0.6,0.3,0.8c0.2,0.2,0.5,0.3,0.8,0.3
		c0.3,0,0.5-0.1,0.8-0.2c0.3-0.1,0.5-0.4,0.9-0.7L190.1,20.3z"/>
</g>
<g>
	<path d="M372.2,15.2h9.1l-1,3.2h-0.3c0.1-0.5,0.2-0.9,0.2-1.2c0-0.4-0.1-0.8-0.4-1c-0.2-0.2-0.7-0.2-1.5-0.2h-0.9l-2.4,8.2
		c-0.3,1-0.4,1.7-0.4,1.9c0,0.2,0.1,0.4,0.3,0.5s0.5,0.2,1,0.2h0.4l-0.1,0.3h-5.2l0.1-0.3h0.2c0.5,0,0.8-0.1,1.1-0.2
		c0.2-0.1,0.3-0.3,0.5-0.5s0.3-0.8,0.6-1.7l2.5-8.5H375c-0.7,0-1.2,0.1-1.7,0.3c-0.4,0.2-0.8,0.4-1,0.8s-0.5,0.8-0.6,1.4h-0.3
		L372.2,15.2z"/>
</g>
<line class="st1" x1="147.3" y1="26.9" x2="212.2" y2="26.9"/>
<circle cx="182.2" cy="26.9" r="6.1"/>
<g>
</g>
<g>
</g>
<g>
</g>
<g>
</g>
<g>
</g>
<g>
</g>
</svg>
